<svg xmlns="http://www.w3.org/2000/svg" xmlns:xlink="http://www.w3.org/1999/xlink" width="474.216" height="219.99" viewBox="0 0 474.216 219.99"><defs><linearGradient id="a" x1="0.203" y1="0.5" x2="0.994" y2="0.5" gradientUnits="objectBoundingBox"><stop offset="0" stop-color="#dbe7f1"/><stop offset="0.103" stop-color="#dbe7f1" stop-opacity="0.98"/><stop offset="0.222" stop-color="#dbe7f1" stop-opacity="0.922"/><stop offset="0.348" stop-color="#dce8f1" stop-opacity="0.827"/><stop offset="0.48" stop-color="#dee9f2" stop-opacity="0.694"/><stop offset="0.615" stop-color="#e0eaf2" stop-opacity="0.522"/><stop offset="0.754" stop-color="#e2ebf3" stop-opacity="0.31"/><stop offset="0.893" stop-color="#e5edf4" stop-opacity="0.067"/><stop offset="0.929" stop-color="#e6eef5" stop-opacity="0"/></linearGradient><linearGradient id="d" x1="1.131" y1="-0.068" x2="0.27" y2="1.121" gradientUnits="objectBoundingBox"><stop offset="0" stop-color="#79e3a3"/><stop offset="1" stop-color="#348c57"/></linearGradient><linearGradient id="e" x1="0.152" y1="-0.027" x2="0.648" y2="1.002" gradientUnits="objectBoundingBox"><stop offset="0" stop-color="#00827a"/><stop offset="1" stop-color="#004440"/></linearGradient><linearGradient id="f" x1="1.163" y1="-0.089" x2="0.238" y2="0.892" gradientUnits="objectBoundingBox"><stop offset="0.426" stop-color="#fa9e6e"/><stop offset="0.528" stop-color="#fa9764"/><stop offset="0.699" stop-color="#fa864a"/><stop offset="0.916" stop-color="#fa6a21"/><stop offset="1" stop-color="#fa5f0f"/></linearGradient><linearGradient id="g" x1="0.447" y1="0.033" x2="0.521" y2="0.988" gradientUnits="objectBoundingBox"><stop offset="0" stop-color="#fa9e6e"/><stop offset="1" stop-color="#fa5f0f"/></linearGradient><linearGradient id="h" x1="0.583" y1="-0.032" x2="0.473" y2="0.963" gradientUnits="objectBoundingBox"><stop offset="0" stop-color="#ffcf94"/><stop offset="1" stop-color="#ff9b1e"/></linearGradient><linearGradient id="i" x1="0.396" y1="0.128" x2="0.665" y2="0.883" gradientUnits="objectBoundingBox"><stop offset="0" stop-color="#db9d77"/><stop offset="1" stop-color="#ffc19b"/></linearGradient><linearGradient id="j" x1="0.772" y1="0.104" x2="0.201" y2="0.739" xlink:href="#i"/><linearGradient id="k" x1="0.326" y1="0.107" x2="0.829" y2="0.563" xlink:href="#i"/><linearGradient id="l" x1="0.406" y1="-0.165" x2="0.759" y2="0.836" gradientUnits="objectBoundingBox"><stop offset="0" stop-color="#434e85"/><stop offset="1" stop-color="#707abd"/></linearGradient><linearGradient id="m" x1="0.5" y1="0.113" x2="0.52" y2="1.028" gradientUnits="objectBoundingBox"><stop offset="0" stop-color="#ff9b0e"/><stop offset="1" stop-color="#fa5f0f"/></linearGradient><linearGradient id="n" x1="0.438" y1="1.064" x2="0.557" y2="0.065" gradientUnits="objectBoundingBox"><stop offset="0" stop-color="#5962a1"/><stop offset="1" stop-color="#33385c"/></linearGradient><linearGradient id="o" x1="0" y1="0.5" x2="1" y2="0.5" xlink:href="#i"/><linearGradient id="q" x1="0.432" y1="0.236" x2="0.823" y2="0.789" xlink:href="#i"/><linearGradient id="r" x1="0.268" y1="-0.098" x2="0.721" y2="1.045" xlink:href="#i"/><linearGradient id="s" y1="0.5" x2="1" y2="0.5" gradientUnits="objectBoundingBox"><stop offset="0" stop-color="#a36a48"/><stop offset="1" stop-color="#db9d77"/></linearGradient><linearGradient id="t" x1="0.445" y1="0.992" x2="0.697" y2="0.177" xlink:href="#n"/><linearGradient id="u" x1="0.31" y1="0.157" x2="0.67" y2="0.848" xlink:href="#s"/><linearGradient id="v" x1="0.444" y1="-0.009" x2="0.537" y2="0.815" xlink:href="#l"/><linearGradient id="w" x1="0.848" y1="-0.102" x2="0.216" y2="0.444" gradientUnits="objectBoundingBox"><stop offset="0" stop-color="#8a3e40"/><stop offset="1" stop-color="#ff7377"/></linearGradient><linearGradient id="x" x1="0.387" y1="-0.007" x2="0.653" y2="1.008" xlink:href="#w"/><linearGradient id="y" x1="0.371" y1="-0.094" x2="0.663" y2="0.962" xlink:href="#i"/><linearGradient id="z" x1="0.476" y1="-0.039" x2="0.537" y2="0.918" xlink:href="#i"/><linearGradient id="aa" x1="0.427" y1="0.02" x2="0.592" y2="0.973" xlink:href="#i"/><linearGradient id="ab" x1="0.016" y1="0.082" x2="0.714" y2="0.977" gradientUnits="objectBoundingBox"><stop offset="0" stop-color="#bad196"/><stop offset="1" stop-color="#91a375"/></linearGradient><linearGradient id="ac" x1="0.403" y1="0.003" x2="0.587" y2="1.074" xlink:href="#d"/><linearGradient id="ad" x1="0.372" y1="0.009" x2="0.583" y2="0.822" xlink:href="#g"/><linearGradient id="ae" x1="0.074" y1="0.049" x2="0.839" y2="0.875" xlink:href="#h"/><linearGradient id="af" x1="0.451" y1="0.018" x2="0.553" y2="0.872" xlink:href="#d"/><linearGradient id="ag" x1="0.547" y1="0.031" x2="0.475" y2="0.921" xlink:href="#e"/><linearGradient id="ah" x1="0.06" y1="0.008" x2="0.974" y2="0.641" xlink:href="#i"/><linearGradient id="ai" x1="0.126" y1="0.063" x2="0.787" y2="0.897" xlink:href="#i"/><linearGradient id="aj" x1="0.12" y1="0.401" x2="0.978" y2="0.6" xlink:href="#i"/><linearGradient id="ak" x1="0.441" y1="0.973" x2="0.574" y2="0.098" gradientUnits="objectBoundingBox"><stop offset="0" stop-color="#622439"/><stop offset="1" stop-color="#421827"/></linearGradient><linearGradient id="al" x1="0.332" y1="0.055" x2="0.845" y2="0.987" xlink:href="#m"/><linearGradient id="am" x1="0.77" y1="0.082" x2="0.267" y2="0.991" xlink:href="#i"/><linearGradient id="an" x1="0.297" y1="-0.487" x2="0.59" y2="0.419" gradientUnits="objectBoundingBox"><stop offset="0" stop-color="#fea203"/><stop offset="1" stop-color="#ffe052"/></linearGradient><linearGradient id="ao" x1="0.408" y1="0.034" x2="0.669" y2="0.709" xlink:href="#an"/><linearGradient id="ap" x1="0.375" y1="0.504" x2="0.008" y2="1.127" xlink:href="#i"/><linearGradient id="aq" x1="0.423" y1="-0.419" x2="0.583" y2="0.755" xlink:href="#i"/><linearGradient id="ar" x1="0.336" y1="-0.074" x2="0.849" y2="0.803" xlink:href="#i"/><linearGradient id="as" x1="-0.314" y1="0.025" x2="0.529" y2="0.648" xlink:href="#i"/></defs><g transform="translate(-770.224 -2451.611)"><path d="M-4.773,787.812l470.082.126c-6.935-32.052-24.1-86.2-61.683-93.512-53.916-10.5-83.356,22.847-152.788,29.857S183.057,693.94,146.7,690.863,94.428,709.2,77.2,736.824C67.163,752.92,19.138,776.336-4.773,787.812Z" transform="translate(774.997 1883.663)" fill="#cbecff" opacity="0.2"/><g transform="translate(789.111 2474.61)"><path d="M1956.346,602.409a2.492,2.492,0,1,1-2.492,2.492A2.492,2.492,0,0,1,1956.346,602.409Zm0,4.022a1.53,1.53,0,1,0-1.53-1.53A1.53,1.53,0,0,0,1956.346,606.431Z" transform="translate(-1746.815 -550.983)" fill="#d5e5fd"/><path d="M3618.95,1247.478a2.492,2.492,0,1,1-2.492,2.492A2.492,2.492,0,0,1,3618.95,1247.478Zm0,4.022a1.53,1.53,0,1,0-1.531-1.531A1.531,1.531,0,0,0,3618.95,1251.5Z" transform="translate(-3616.458 -1115.724)" fill="#d5e5fd"/><path d="M290.32,337.054h1.6v-1.6a.363.363,0,1,1,.726,0v1.6h1.6a.363.363,0,1,1,0,.726h-1.6v1.6a.363.363,0,1,1-.726,0v-1.6h-1.6a.363.363,0,1,1,0-.726Z" transform="translate(124.616 -316.954)" fill="#d5e5fd"/><path d="M3447.25,258.73h1.6v-1.6a.363.363,0,0,1,.727,0v1.6h1.6a.363.363,0,0,1,0,.726h-1.6v1.6a.363.363,0,0,1-.727,0v-1.6h-1.6a.363.363,0,1,1,0-.726Z" transform="translate(-3425.436 -248.384)" fill="#d5e5fd"/><path d="M165.8,912.458l1.13,1.13,1.13-1.13a.363.363,0,0,1,.514.514l-1.13,1.13,1.13,1.13a.363.363,0,1,1-.514.514l-1.13-1.13-1.13,1.13a.363.363,0,0,1-.514-.514l1.13-1.13-1.13-1.13a.363.363,0,0,1,.514-.514Z" transform="translate(266.083 -822.329)" fill="#d5e5fd"/><path d="M3125.054,650.041l1.13,1.13,1.131-1.13a.363.363,0,1,1,.514.514l-1.13,1.13,1.13,1.13a.363.363,0,0,1-.514.514l-1.131-1.13-1.13,1.13a.363.363,0,0,1-.513-.514l1.13-1.13-1.13-1.13a.363.363,0,0,1,.513-.514Z" transform="translate(-3061.681 -592.591)" fill="#d5e5fd"/><path d="M1073.448,410.53l.383,1.552,1.552-.383a.363.363,0,0,1,.174.705l-1.552.383.383,1.552a.363.363,0,1,1-.705.174l-.383-1.552-1.552.383a.363.363,0,0,1-.174-.705l1.552-.383-.383-1.552a.363.363,0,0,1,.706-.174Z" transform="translate(-753.909 -382.756)" fill="#d5e5fd"/><path d="M2104.195,189.991l-.827,1.368,1.368.827a.363.363,0,0,1-.376.622l-1.368-.827-.827,1.368a.363.363,0,0,1-.622-.376l.827-1.368-1.368-.827a.363.363,0,1,1,.375-.622l1.368.827.826-1.368a.363.363,0,0,1,.622.376Z" transform="translate(-1911.191 -189.44)" fill="#d5e5fd"/><path d="M825.215,564.045l1.13,1.13,1.13-1.13a.363.363,0,1,1,.514.514l-1.13,1.13,1.13,1.13a.363.363,0,0,1-.514.514l-1.13-1.13-1.13,1.13a.363.363,0,1,1-.514-.514l1.13-1.13-1.13-1.13a.363.363,0,0,1,.514-.514Z" transform="translate(-475.449 -517.304)" fill="#d5e5fd"/></g><path d="M2502.929,340.68l.77-.372-1.985-4.113c1.607.256,5.08.811,5.461.874l.14-.844c-.5-.083-6.039-.967-6.275-1l-.809-.129Z" transform="translate(-1574.22 2157.655)" fill="#ccc0c9"/><path d="M1577.654,309.452l-.067-.853-4.553.36c.822-1.4,2.6-4.441,2.794-4.772l-.735-.437c-.258.434-3.09,5.278-3.211,5.484l-.413.707Z" transform="translate(-528.903 2185.095)" fill="#ccc0c9"/><g transform="translate(793.496 2451.611)"><path d="M.146,4.9a.5.5,0,0,1,.7,0c.357.352.714.711,1.06,1.065a.5.5,0,0,1-.714.7C.856,6.3.5,5.951.151,5.6A.5.5,0,0,1,.146,4.9ZM2.924,7.748a.5.5,0,0,1,.7.032c.339.372.675.748,1,1.121a.5.5,0,0,1-.751.655c-.32-.366-.651-.738-.985-1.1A.5.5,0,0,1,2.924,7.748Zm2.616,3a.5.5,0,0,1,.7.073c.316.392.63.791.933,1.183a.5.5,0,0,1-.789.608c-.3-.387-.606-.778-.918-1.164A.5.5,0,0,1,5.541,10.749Zm2.428,3.159a.5.5,0,0,1,.694.12c.29.412.577.832.852,1.245a.5.5,0,1,1-.829.55c-.27-.406-.552-.817-.837-1.222A.5.5,0,0,1,7.969,13.908Zm2.2,3.319a.5.5,0,0,1,.684.172c.259.432.512.872.755,1.306a.5.5,0,0,1-.193.677.484.484,0,0,1-.242.064.5.5,0,0,1-.436-.255c-.237-.426-.486-.857-.74-1.281A.5.5,0,0,1,10.172,17.227Zm2,3.443a.5.5,0,0,1,.687.153c.263.411.538.823.818,1.223a.5.5,0,0,1-.123.694.49.49,0,0,1-.284.091.5.5,0,0,1-.41-.213c-.288-.412-.57-.836-.841-1.259A.5.5,0,0,1,12.173,20.67Zm2.28,3.261a.5.5,0,0,1,.7.073c.306.379.626.756.95,1.122a.5.5,0,0,1-.747.66c-.332-.377-.661-.766-.978-1.156A.5.5,0,0,1,14.453,23.932Zm2.635,2.981a.5.5,0,0,1,.7-.006c.346.341.707.681,1.072,1.011a.5.5,0,0,1-.334.868.49.49,0,0,1-.334-.13c-.375-.339-.746-.689-1.1-1.039A.5.5,0,0,1,17.088,26.913Zm107.718,2.746q.342,0,.684,0c.278,0,.547,0,.819,0a.5.5,0,0,1,0,1h0c-.494,0-.989-.006-1.484,0h-.005a.5.5,0,0,1,0-1ZM120.8,29.8c.5-.031,1-.057,1.5-.078a.5.5,0,0,1,.042.995c-.492.021-.99.047-1.482.077h-.032a.5.5,0,0,1-.03-.995Zm8.013-.073c.5.022,1,.049,1.5.081a.5.5,0,0,1-.031.995h-.032c-.489-.031-.986-.057-1.477-.078a.5.5,0,0,1,.044-1Zm-12.007.427c.494-.057,1-.11,1.5-.158a.5.5,0,0,1,.095.992c-.492.046-.989.1-1.476.156l-.059,0a.5.5,0,0,1-.056-.992Zm16-.147c.5.047,1,.1,1.494.158a.5.5,0,0,1-.056.992l-.059,0c-.489-.057-.986-.11-1.476-.157a.5.5,0,1,1,.1-.991ZM20.042,29.584a.5.5,0,0,1,.7-.083c.382.3.777.6,1.174.889a.5.5,0,0,1-.293.9.492.492,0,0,1-.291-.1c-.408-.3-.814-.6-1.208-.912A.5.5,0,0,1,20.042,29.584Zm92.794,1.136c.492-.083.991-.163,1.486-.237a.5.5,0,0,1,.147.985c-.488.072-.981.151-1.466.233a.483.483,0,0,1-.083.007.5.5,0,0,1-.083-.989Zm23.385.194a.5.5,0,0,1,.565-.42c.494.073.994.153,1.486.235a.5.5,0,0,1-.082.99.472.472,0,0,1-.083-.007c-.486-.082-.979-.161-1.466-.233A.5.5,0,0,1,136.221,30.914Zm-27.319.579c.487-.108.981-.214,1.471-.315a.5.5,0,0,1,.2.976c-.483.1-.971.2-1.451.311a.558.558,0,0,1-.11.012.5.5,0,0,1-.11-.985Zm31.246.083a.5.5,0,0,1,.587-.39c.488.1.983.2,1.471.311a.5.5,0,0,1-.107.985.459.459,0,0,1-.108-.012c-.482-.107-.97-.21-1.452-.308A.5.5,0,0,1,140.148,31.576Zm3.889.863a.5.5,0,0,1,.605-.359c.486.123.974.254,1.453.386a.5.5,0,0,1-.132.979.485.485,0,0,1-.133-.019c-.473-.131-.955-.259-1.435-.381A.5.5,0,0,1,144.037,32.439Zm-39.023.034c.481-.134.969-.266,1.453-.391a.5.5,0,1,1,.249.964c-.477.123-.959.254-1.433.386a.5.5,0,1,1-.269-.959Zm-81.752-.55a.5.5,0,0,1,.687-.153c.411.26.836.518,1.26.766a.5.5,0,1,1-.5.86c-.436-.254-.87-.519-1.291-.786A.5.5,0,0,1,23.262,31.922Zm77.918,1.611q.717-.192,1.44-.391a.5.5,0,0,1,.264.96q-.725.2-1.444.392a.469.469,0,0,1-.13.017.5.5,0,0,1-.13-.979Zm46.7-.034a.5.5,0,0,1,.624-.329c.476.148.958.3,1.431.46a.5.5,0,0,1-.314.946c-.467-.156-.943-.308-1.413-.455A.5.5,0,0,1,147.876,33.5Zm93.688.55c.494,0,1,.01,1.5.02a.5.5,0,0,1-.01,1h-.009c-.5-.01-1-.016-1.491-.02a.5.5,0,0,1,.007-1Zm-4,.029c.493-.011,1-.02,1.5-.025a.5.5,0,1,1,.011,1c-.5,0-1,.014-1.488.025h-.011a.5.5,0,0,1-.011-1Zm8,.061q.749.028,1.5.062a.5.5,0,0,1-.022,1h-.024q-.745-.034-1.488-.062a.5.5,0,0,1,.036-.995Zm-12,.095c.493-.027,1-.052,1.5-.073a.5.5,0,0,1,.042.995c-.5.021-1,.046-1.491.073h-.029a.5.5,0,0,1-.027-.995ZM26.7,33.931a.5.5,0,0,1,.67-.218c.433.222.879.44,1.326.649a.5.5,0,0,1-.212.949.492.492,0,0,1-.21-.047c-.457-.213-.914-.436-1.357-.662A.5.5,0,0,1,26.7,33.931Zm222.855.41q.747.049,1.5.1a.5.5,0,0,1-.036.994h-.037q-.743-.054-1.486-.1a.5.5,0,0,1,.064-.995Zm-152.223.191c.481-.12.961-.243,1.445-.366a.5.5,0,1,1,.249.964q-.728.189-1.452.369a.446.446,0,0,1-.121.015.5.5,0,0,1-.121-.981Zm132.231-.006c.494-.045,1-.087,1.5-.126a.5.5,0,1,1,.076.994c-.5.039-.995.08-1.486.125h-.046a.5.5,0,0,1-.044-.994Zm23.976.121q.745.065,1.492.139a.5.5,0,0,1-.047.994l-.05,0c-.5-.049-.989-.095-1.483-.138a.5.5,0,1,1,.088-.992Zm-27.964.311c.492-.062.995-.123,1.494-.179a.5.5,0,0,1,.112.99c-.5.056-.994.116-1.481.178a.544.544,0,0,1-.064,0,.5.5,0,0,1-.062-.992Zm-73.919-.2a.5.5,0,0,1,.64-.3c.468.172.941.35,1.406.53a.5.5,0,0,1-.181.963.514.514,0,0,1-.181-.034c-.458-.178-.925-.355-1.388-.524A.5.5,0,0,1,151.657,34.753Zm105.307.733a.5.5,0,0,1,.55-.44q.743.084,1.488.173a.5.5,0,1,1-.12.99q-.742-.09-1.479-.173A.5.5,0,0,1,256.964,35.486Zm-163.5-.022q.723-.168,1.451-.341a.5.5,0,1,1,.232.969c-.487.116-.974.23-1.457.342a.511.511,0,0,1-.113.014.5.5,0,0,1-.112-.984Zm128.142.075c.492-.082.992-.162,1.484-.235a.5.5,0,1,1,.149.985c-.488.073-.982.152-1.471.233a.458.458,0,0,1-.082.007.5.5,0,0,1-.081-.99Zm39.309.426a.5.5,0,0,1,.56-.427c.493.066.989.134,1.483.205a.5.5,0,0,1-.07.991.454.454,0,0,1-.071,0q-.738-.1-1.476-.2A.5.5,0,0,1,260.919,35.965ZM30.3,35.622a.5.5,0,0,1,.65-.274c.452.183.915.364,1.377.537a.5.5,0,0,1-.347.934c-.472-.177-.944-.361-1.406-.548A.5.5,0,0,1,30.3,35.622Zm420.643.857v.377A.5.5,0,0,1,450.947,36.479Zm-233.277-.2c.487-.1.983-.2,1.474-.3a.5.5,0,0,1,.188.979c-.487.093-.978.192-1.459.291a.483.483,0,0,1-.1.011.5.5,0,0,1-.1-.986Zm-128.082.051q.727-.155,1.457-.315a.5.5,0,0,1,.214.973q-.734.163-1.464.316a.5.5,0,1,1-.207-.974Zm175.275.2a.5.5,0,0,1,.569-.416q.738.114,1.479.235a.5.5,0,0,1-.08.99.59.59,0,0,1-.081-.006c-.492-.081-.983-.158-1.472-.235A.5.5,0,0,1,264.863,36.527ZM155.37,36.2a.5.5,0,0,1,.654-.264c.46.2.923.4,1.377.6a.5.5,0,1,1-.407.909c-.448-.2-.907-.4-1.36-.593A.5.5,0,0,1,155.37,36.2Zm113.425.971a.5.5,0,0,1,.577-.4q.736.129,1.473.263a.5.5,0,0,1-.088.989.446.446,0,0,1-.09-.009q-.734-.133-1.467-.262A.5.5,0,0,1,268.8,37.168Zm-183.1-.054q.729-.14,1.462-.286a.5.5,0,1,1,.2.976q-.738.148-1.471.288a.476.476,0,0,1-.093.01.5.5,0,0,1-.093-.988Zm-51.657-.1a.5.5,0,0,1,.626-.323c.467.149.943.3,1.416.433a.5.5,0,0,1-.139.976.49.49,0,0,1-.139-.02c-.482-.141-.966-.289-1.441-.441A.5.5,0,0,1,34.035,37.014Zm179.73.159c.483-.122.974-.242,1.461-.356a.5.5,0,1,1,.228.97c-.481.113-.968.232-1.445.352a.519.519,0,0,1-.122.015.5.5,0,0,1-.122-.981Zm58.95.707a.5.5,0,0,1,.584-.395q.734.142,1.469.288a.5.5,0,0,1-.1.988.538.538,0,0,1-.1-.01q-.732-.146-1.463-.288A.5.5,0,0,1,272.714,37.881ZM81.782,37.82q.73-.123,1.468-.255a.5.5,0,1,1,.174.981q-.742.131-1.476.257a.486.486,0,0,1-.085.007.5.5,0,0,1-.082-.99Zm-43.924.313a.5.5,0,0,1,.6-.364c.474.118.96.233,1.443.34a.5.5,0,0,1-.108.985.477.477,0,0,1-.11-.012c-.491-.11-.984-.225-1.466-.345A.5.5,0,0,1,37.858,38.133Zm121.149-.309a.5.5,0,0,1,.666-.23c.448.218.9.443,1.345.67a.5.5,0,0,1-.227.943.489.489,0,0,1-.225-.055c-.438-.224-.887-.446-1.329-.661A.5.5,0,0,1,159.006,37.824Zm50.9.413c.476-.143.961-.284,1.442-.418a.5.5,0,0,1,.269.959c-.474.133-.955.273-1.426.413a.475.475,0,0,1-.143.021.5.5,0,0,1-.142-.975Zm-132.046.2q.734-.106,1.473-.222a.5.5,0,1,1,.153.984q-.745.116-1.482.224a.485.485,0,0,1-.073,0,.5.5,0,0,1-.071-.991Zm198.764.22a.5.5,0,0,1,.59-.385q.73.153,1.463.311a.5.5,0,0,1-.1.985.518.518,0,0,1-.106-.011q-.73-.157-1.458-.311A.5.5,0,0,1,276.622,38.661ZM41.744,39a.5.5,0,0,1,.58-.4c.481.088.971.176,1.462.255a.5.5,0,0,1-.081.99.606.606,0,0,1-.081-.006c-.5-.082-.995-.169-1.482-.26A.5.5,0,0,1,41.744,39Zm32.178-.036q.736-.09,1.477-.186a.5.5,0,1,1,.13.987q-.747.1-1.487.187a.5.5,0,0,1-.554-.435A.5.5,0,0,1,73.922,38.967Zm374.4.259c.349-.354.7-.712,1.035-1.068a.5.5,0,1,1,.721.686c-.341.36-.694.723-1.045,1.082a.5.5,0,0,1-.356.148.5.5,0,0,1-.355-.848Zm-378.348.166q.738-.069,1.482-.147a.5.5,0,0,1,.1.991q-.751.078-1.492.148l-.047,0a.5.5,0,0,1-.046-.995Zm-24.3.259a.5.5,0,0,1,.558-.43c.487.064.983.125,1.474.179a.5.5,0,0,1-.055.994.423.423,0,0,1-.056,0c-.5-.056-1-.117-1.493-.182A.5.5,0,0,1,45.674,39.651ZM206.1,39.469c.467-.163.945-.325,1.421-.482a.5.5,0,0,1,.311.946c-.469.154-.943.315-1.4.476a.506.506,0,0,1-.164.027.5.5,0,0,1-.163-.968Zm74.42.034a.5.5,0,0,1,.6-.376q.73.164,1.459.334a.5.5,0,0,1-.112.983.509.509,0,0,1-.113-.012q-.727-.168-1.453-.332A.5.5,0,0,1,280.516,39.5Zm-214.5.205c.491-.032.99-.067,1.484-.1a.5.5,0,1,1,.076.992c-.5.039-1,.073-1.5.106H66.05a.5.5,0,0,1-.032-.995ZM50.17,39.641c.488.041.988.078,1.482.111a.5.5,0,0,1-.032.995h-.034c-.5-.032-1-.071-1.5-.112a.5.5,0,1,1,.082-.992Zm11.885.262c.488-.016.989-.036,1.486-.059a.5.5,0,0,1,.046.995c-.5.024-1.006.044-1.5.06H62.07a.5.5,0,0,1-.015-1Zm-7.93-.019c.488.02.989.036,1.486.049a.5.5,0,0,1-.012,1h-.012c-.5-.014-1.007-.03-1.5-.05a.5.5,0,1,1,.04-.995Zm3.962.082h.2q.643,0,1.29-.007h.006a.5.5,0,0,1,0,1q-.654.007-1.3.007h-.2a.5.5,0,0,1,0-1Zm104.468-.332a.5.5,0,0,1,.677-.2c.44.242.88.489,1.31.737a.5.5,0,1,1-.5.863c-.425-.244-.859-.488-1.294-.727A.5.5,0,0,1,162.555,39.633ZM284.4,40.4a.5.5,0,0,1,.6-.367q.727.176,1.454.354a.5.5,0,0,1-.118.983.491.491,0,0,1-.12-.015q-.725-.177-1.45-.352A.5.5,0,0,1,284.4,40.4Zm-82.048.468c.461-.184.931-.367,1.4-.544a.5.5,0,1,1,.355.93c-.461.176-.925.357-1.381.539a.485.485,0,0,1-.184.036.5.5,0,0,1-.186-.961Zm85.917.483a.5.5,0,0,1,.605-.36l1.449.372a.5.5,0,0,1-.125.981.553.553,0,0,1-.126-.016q-.723-.189-1.445-.371A.5.5,0,0,1,288.267,41.352Zm157.214.641c.361-.337.725-.682,1.08-1.024a.5.5,0,0,1,.691.719c-.359.345-.726.692-1.092,1.034a.5.5,0,1,1-.679-.728ZM166.01,41.618a.5.5,0,0,1,.685-.162c.425.263.853.533,1.271.8a.5.5,0,0,1-.27.917.487.487,0,0,1-.269-.08c-.415-.266-.837-.533-1.255-.792A.5.5,0,0,1,166.01,41.618Zm126.113.733a.5.5,0,0,1,.61-.352l1.444.39a.5.5,0,0,1-.131.979.524.524,0,0,1-.131-.017q-.721-.2-1.441-.389A.5.5,0,0,1,292.123,42.352Zm-93.45.087c.452-.205.913-.41,1.369-.608a.5.5,0,0,1,.4.914c-.452.2-.907.4-1.354.6a.486.486,0,0,1-.205.045.5.5,0,0,1-.207-.951Zm97.294.958a.5.5,0,0,1,.614-.345q.719.2,1.441.4a.5.5,0,0,1-.136.978.509.509,0,0,1-.136-.019q-.719-.2-1.437-.4A.5.5,0,0,1,295.967,43.4Zm-100.9.782c.442-.227.894-.453,1.342-.674a.5.5,0,1,1,.438.9c-.442.217-.889.441-1.327.665a.49.49,0,0,1-.227.055.5.5,0,0,1-.227-.941Zm-25.715-.4a.5.5,0,0,1,.694-.127c.41.284.823.575,1.229.868a.5.5,0,0,1-.583.808c-.4-.289-.808-.577-1.213-.855A.5.5,0,0,1,169.357,43.777Zm273.167.859c.374-.32.751-.649,1.121-.976a.5.5,0,1,1,.66.746c-.374.331-.755.662-1.132.988a.5.5,0,0,1-.325.12.5.5,0,0,1-.324-.877ZM299.8,44.482a.5.5,0,0,1,.616-.339q.717.207,1.436.418a.5.5,0,0,1-.139.976.493.493,0,0,1-.141-.02q-.717-.211-1.433-.418A.5.5,0,0,1,299.8,44.482Zm3.822,1.124a.5.5,0,0,1,.62-.334q.715.213,1.432.432a.5.5,0,0,1-.144.975.485.485,0,0,1-.144-.022q-.715-.217-1.43-.431A.5.5,0,0,1,303.623,45.607Zm-112.074.479c.433-.248.874-.5,1.311-.735a.5.5,0,1,1,.479.873c-.432.237-.868.482-1.3.726a.492.492,0,0,1-.247.066.5.5,0,0,1-.248-.93Zm-18.958.02a.5.5,0,0,1,.7-.091c.4.306.793.619,1.182.93a.5.5,0,0,1-.624.777c-.382-.308-.775-.616-1.167-.918A.5.5,0,0,1,172.591,46.106Zm134.845.658a.5.5,0,0,1,.623-.328q.714.22,1.428.445a.5.5,0,0,1-.149.973.516.516,0,0,1-.148-.022l-1.426-.443A.5.5,0,0,1,307.436,46.764Zm132.026.395c.387-.306.778-.62,1.159-.931a.5.5,0,0,1,.63.773c-.386.314-.781.63-1.172.94a.5.5,0,1,1-.618-.782Zm-128.224.8a.5.5,0,0,1,.626-.324l1.423.455a.5.5,0,0,1-.3.949l-1.422-.455A.5.5,0,0,1,311.238,47.954Zm-123.12.2c.422-.266.85-.534,1.276-.793a.5.5,0,0,1,.519.849c-.421.258-.846.522-1.262.786a.5.5,0,0,1-.687-.153A.5.5,0,0,1,188.118,48.153Zm126.913,1.019a.5.5,0,0,1,.629-.32l1.421.466a.5.5,0,0,1-.156.971.528.528,0,0,1-.156-.025l-1.418-.464A.5.5,0,0,1,315.031,49.172ZM175.7,48.6a.5.5,0,0,1,.7-.054c.38.325.76.659,1.132.991a.5.5,0,0,1-.665.742c-.366-.328-.742-.656-1.116-.978A.5.5,0,0,1,175.7,48.6Zm260.6.951c.4-.289.8-.585,1.2-.883a.5.5,0,0,1,.6.8c-.4.3-.807.6-1.209.892a.5.5,0,1,1-.585-.807Zm-251.513.824c.408-.286.824-.573,1.238-.851a.5.5,0,1,1,.557.826c-.407.275-.819.558-1.223.841a.5.5,0,0,1-.572-.816Zm134.03.039a.5.5,0,0,1,.63-.315l1.418.474a.5.5,0,0,1-.158.97.475.475,0,0,1-.159-.026l-1.416-.473A.5.5,0,0,1,318.817,50.415Zm114.227,1.4c.412-.274.827-.554,1.233-.833a.5.5,0,0,1,.564.822c-.41.281-.829.564-1.245.841a.5.5,0,0,1-.552-.829ZM322.6,51.685a.5.5,0,0,1,.631-.311l1.421.483a.5.5,0,0,1-.162.97.49.49,0,0,1-.161-.027l-1.418-.483A.5.5,0,0,1,322.6,51.685Zm-143.936-.43a.5.5,0,0,1,.7-.015c.362.347.725.7,1.076,1.051a.5.5,0,1,1-.7.706c-.346-.346-.7-.695-1.061-1.037A.5.5,0,0,1,178.667,51.255Zm2.892,1.489c.395-.3.8-.608,1.2-.905a.5.5,0,1,1,.594.8c-.4.294-.794.6-1.186.9a.5.5,0,1,1-.606-.791Zm144.826.233a.5.5,0,0,1,.634-.309l1.417.491a.5.5,0,0,1-.326.941l-1.416-.491A.5.5,0,0,1,326.384,52.977Zm103.314.961c.421-.254.847-.517,1.265-.78a.5.5,0,1,1,.529.843c-.422.266-.853.532-1.278.79a.5.5,0,0,1-.517-.853Zm-99.538.349a.5.5,0,0,1,.635-.305l1.415.5a.5.5,0,0,1-.166.969.471.471,0,0,1-.164-.029l-1.415-.5A.5.5,0,0,1,330.16,54.287ZM181.486,54.07a.5.5,0,0,1,.7.024c.342.366.684.74,1.015,1.111a.5.5,0,1,1-.742.664c-.326-.365-.664-.732-1-1.095A.5.5,0,0,1,181.486,54.07Zm-3.05,1.182c.381-.319.771-.641,1.158-.955a.5.5,0,1,1,.628.773c-.384.311-.768.629-1.146.945a.5.5,0,1,1-.64-.763Zm155.493.362a.5.5,0,0,1,.635-.3l1.413.5a.5.5,0,1,1-.335.938l-1.411-.5A.5.5,0,0,1,333.929,55.614Zm92.337.308c.431-.237.868-.481,1.3-.726a.5.5,0,1,1,.494.865c-.433.248-.875.494-1.311.733a.49.49,0,0,1-.239.062.5.5,0,0,1-.24-.935Zm-88.574,1.032a.5.5,0,0,1,.636-.3l1.411.507a.5.5,0,0,1-.168.968.506.506,0,0,1-.169-.03l-1.41-.506A.5.5,0,0,1,337.693,56.954Zm85.061.8c.443-.219.889-.445,1.326-.67a.5.5,0,1,1,.457.885c-.442.228-.893.456-1.341.677a.5.5,0,1,1-.442-.893Zm-247.33.132c.367-.335.743-.672,1.117-1a.5.5,0,1,1,.66.747c-.37.327-.742.661-1.106.992a.5.5,0,1,1-.671-.736Zm8.721-.851a.5.5,0,0,1,.7.065c.32.385.64.777.949,1.167a.5.5,0,1,1-.78.62c-.305-.384-.62-.771-.935-1.149A.5.5,0,0,1,184.143,57.037ZM341.45,58.3a.5.5,0,0,1,.639-.3l1.408.511a.5.5,0,0,1-.169.966.479.479,0,0,1-.171-.03l-1.407-.509A.5.5,0,0,1,341.45,58.3Zm77.715,1.129c.451-.2.907-.4,1.354-.61a.5.5,0,1,1,.418.9c-.453.209-.914.417-1.37.618a.5.5,0,1,1-.4-.912Zm-73.96.233a.5.5,0,0,1,.638-.3l1.408.513a.5.5,0,0,1-.172.966.485.485,0,0,1-.171-.031l-1.406-.512A.5.5,0,0,1,345.2,59.667Zm-172.684.975c.354-.35.716-.7,1.076-1.046a.5.5,0,1,1,.689.719c-.356.341-.714.69-1.065,1.037a.5.5,0,0,1-.7-.71Zm242.986.311c.458-.178.923-.364,1.38-.55a.5.5,0,0,1,.376.921c-.462.189-.931.376-1.395.557a.49.49,0,0,1-.181.035.5.5,0,0,1-.181-.963Zm-66.553.077a.5.5,0,0,1,.635-.305c.464.163.938.325,1.407.483a.5.5,0,0,1-.159.971.47.47,0,0,1-.158-.027c-.473-.159-.951-.323-1.42-.487A.5.5,0,0,1,348.952,61.031Zm-162.328-.875a.5.5,0,0,1,.7.1c.3.4.593.814.879,1.223a.5.5,0,1,1-.816.572c-.281-.4-.573-.806-.865-1.2A.5.5,0,0,1,186.624,60.155Zm225.158,2.151c.467-.158.939-.321,1.4-.487a.5.5,0,0,1,.335.938c-.469.168-.946.334-1.42.493a.5.5,0,1,1-.319-.944Zm-59.054,0a.5.5,0,0,1,.624-.326c.474.149.953.3,1.422.437a.5.5,0,0,1-.143.976.519.519,0,0,1-.143-.021c-.473-.143-.956-.291-1.435-.442A.5.5,0,0,1,352.728,62.3Zm-183,1.205c.341-.365.69-.731,1.034-1.087a.5.5,0,0,1,.717.691c-.341.354-.686.716-1.025,1.077a.5.5,0,1,1-.726-.681ZM408,63.489c.473-.136.951-.279,1.423-.423a.5.5,0,0,1,.293.953c-.478.146-.963.29-1.441.428a.53.53,0,0,1-.138.02.5.5,0,0,1-.137-.978Zm-51.459-.04a.5.5,0,0,1,.613-.346c.477.132.96.263,1.436.387a.5.5,0,0,1-.127.98.508.508,0,0,1-.127-.016c-.479-.126-.966-.258-1.448-.391A.5.5,0,0,1,356.544,63.449Zm3.852,1.014a.5.5,0,0,1,.6-.369c.483.116.97.229,1.45.336a.5.5,0,0,1-.11.985.558.558,0,0,1-.11-.012c-.483-.108-.975-.223-1.462-.34A.5.5,0,0,1,360.4,64.463Zm43.777.035c.479-.115.965-.235,1.442-.357a.5.5,0,0,1,.248.965c-.482.123-.973.245-1.457.361a.477.477,0,0,1-.117.014.5.5,0,0,1-.116-.983ZM188.912,63.415a.5.5,0,0,1,.689.148c.273.422.543.852.8,1.275a.5.5,0,1,1-.849.521c-.257-.417-.522-.839-.789-1.255A.5.5,0,0,1,188.912,63.415Zm175.37,1.921a.5.5,0,0,1,.587-.391c.486.1.976.192,1.461.281a.5.5,0,0,1-.091.989.562.562,0,0,1-.091-.009c-.488-.091-.985-.187-1.474-.285A.5.5,0,0,1,364.282,65.337Zm36.019-.007c.484-.092.975-.191,1.457-.291a.5.5,0,0,1,.2.976c-.488.1-.984.2-1.473.294a.5.5,0,0,1-.188-.979Zm-32.1.733a.5.5,0,0,1,.57-.413c.489.078.984.154,1.469.225a.5.5,0,0,1-.071.991.724.724,0,0,1-.072,0c-.491-.072-.99-.148-1.484-.228A.5.5,0,0,1,368.2,66.063Zm28.2-.08c.487-.07.981-.146,1.468-.224a.5.5,0,1,1,.159.984c-.494.08-.994.156-1.486.227a.706.706,0,0,1-.071,0,.5.5,0,0,1-.071-.991Zm-229.351.5c.323-.374.656-.753.991-1.129a.5.5,0,1,1,.743.664c-.331.372-.661.747-.98,1.117a.5.5,0,0,1-.755-.651Zm205.1.153a.5.5,0,0,1,.553-.436c.493.06.99.115,1.477.166a.5.5,0,0,1-.05.994l-.052,0c-.493-.051-1-.107-1.493-.167A.5.5,0,0,1,372.142,66.636Zm20.323-.178c.492-.049.989-.1,1.477-.157a.5.5,0,1,1,.113.989c-.493.057-1,.111-1.493.159l-.05,0a.5.5,0,0,1-.047-.994Zm-15.826.133c.492.039.991.073,1.483.1a.5.5,0,0,1-.031.995h-.031c-.5-.031-1-.066-1.5-.1a.5.5,0,1,1,.077-.994Zm11.877.162c.491-.026.99-.056,1.482-.09a.5.5,0,0,1,.07.994c-.5.034-1,.065-1.5.091h-.027a.5.5,0,0,1-.025-.995Zm-7.921.064c.5.017.995.031,1.486.041a.5.5,0,0,1-.01,1h-.01c-.5-.01-1-.024-1.5-.041a.5.5,0,0,1,.035-1Zm3.961.055c.492,0,.992-.011,1.486-.024a.5.5,0,0,1,.025,1c-.5.012-1.005.02-1.5.024h0a.5.5,0,0,1,0-1Zm-193.565-.059a.5.5,0,0,1,.677.193c.244.438.486.883.717,1.325a.5.5,0,1,1-.882.463c-.228-.435-.466-.873-.706-1.3A.5.5,0,0,1,190.991,66.812ZM164.5,69.576c.3-.389.619-.785.938-1.176a.5.5,0,0,1,.772.629c-.314.386-.625.777-.925,1.161a.5.5,0,0,1-.785-.614Zm28.345.763a.5.5,0,0,1,.664.238c.214.453.425.915.625,1.371a.5.5,0,1,1-.912.4c-.2-.447-.4-.9-.615-1.346A.5.5,0,0,1,192.843,70.339ZM162.115,72.8c.28-.4.574-.817.872-1.225a.5.5,0,1,1,.806.587c-.294.4-.583.809-.859,1.208a.5.5,0,0,1-.818-.569Zm32.335,1.182a.5.5,0,0,1,.645.284c.182.468.359.943.527,1.412a.5.5,0,0,1-.3.638.524.524,0,0,1-.168.029.5.5,0,0,1-.468-.33c-.166-.461-.339-.928-.518-1.387A.5.5,0,0,1,194.449,73.983Zm-34.516,2.19c.254-.425.519-.855.791-1.283a.5.5,0,1,1,.841.534c-.266.42-.528.843-.777,1.26a.5.5,0,1,1-.854-.512Zm35.855,1.553a.5.5,0,0,1,.623.33c.147.477.288.963.42,1.443a.5.5,0,0,1-.347.613.481.481,0,0,1-.132.017.5.5,0,0,1-.481-.365c-.13-.472-.268-.948-.412-1.416A.5.5,0,0,1,195.788,77.726ZM158,79.7c.219-.445.452-.9.69-1.344a.5.5,0,0,1,.879.469c-.234.438-.461.88-.675,1.314A.5.5,0,0,1,158,79.7Zm38.841,1.852a.5.5,0,0,1,.6.376c.111.489.214.985.309,1.473a.5.5,0,0,1-.393.584.513.513,0,0,1-.1.01.5.5,0,0,1-.488-.4c-.093-.479-.2-.965-.3-1.445A.5.5,0,0,1,196.844,81.555ZM156.4,83.4c.174-.464.362-.938.559-1.406a.5.5,0,0,1,.918.386c-.192.457-.375.918-.544,1.37a.5.5,0,0,1-.467.324.507.507,0,0,1-.174-.032A.5.5,0,0,1,156.4,83.4ZM155.2,87.261c.116-.483.248-.976.391-1.467a.5.5,0,1,1,.956.281c-.139.474-.266.951-.379,1.418a.5.5,0,0,1-.484.382.47.47,0,0,1-.117-.015A.5.5,0,0,1,155.2,87.261Zm42.4-1.8a.5.5,0,0,1,.563.422c.071.5.134,1,.191,1.5a.5.5,0,0,1-.44.55.423.423,0,0,1-.056,0,.5.5,0,0,1-.494-.443c-.055-.484-.117-.978-.187-1.466A.5.5,0,0,1,197.6,85.459Zm-42.883,4.289a.5.5,0,1,1,.985.144c-.071.487-.128.975-.171,1.453a.5.5,0,0,1-.5.456h-.044a.5.5,0,0,1-.453-.54C154.584,90.761,154.644,90.253,154.719,89.748Zm43.324-.331a.5.5,0,0,1,.528.467c.03.5.052,1.01.066,1.509a.5.5,0,0,1-.483.513h-.015a.5.5,0,0,1-.5-.483c-.015-.491-.036-.989-.066-1.479A.5.5,0,0,1,198.043,89.417Zm-43.1,3.875h.011a.5.5,0,0,1,.5.487c.01.488.039.978.083,1.454a.5.5,0,0,1-.45.542l-.047,0a.5.5,0,0,1-.5-.452c-.046-.5-.076-1.012-.087-1.524A.5.5,0,0,1,154.944,93.292Zm42.7.589a.5.5,0,1,1,1,.039c-.02.511-.054,1.021-.1,1.515a.5.5,0,0,1-.5.452h-.046a.5.5,0,0,1-.45-.543C197.589,94.866,197.621,94.374,197.64,93.881Zm-42.322,3.368a.5.5,0,0,1,.594.379c.106.473.23.945.371,1.4a.5.5,0,0,1-.329.621.507.507,0,0,1-.147.022.5.5,0,0,1-.476-.351c-.149-.484-.281-.983-.392-1.481A.5.5,0,0,1,155.318,97.249Zm41.552,1.928c.123-.463.234-.941.329-1.422a.5.5,0,0,1,.978.192c-.1.5-.215,1-.344,1.487a.5.5,0,0,1-.481.37.464.464,0,0,1-.13-.017A.5.5,0,0,1,196.87,99.177Zm-40.383,1.872a.5.5,0,0,1,.661.242c.2.438.426.872.664,1.291a.5.5,0,1,1-.867.492c-.252-.443-.487-.9-.7-1.364A.5.5,0,0,1,156.487,101.049Zm39.027,1.758c.212-.43.411-.875.593-1.327a.5.5,0,0,1,.924.371c-.191.476-.4.945-.624,1.4a.5.5,0,1,1-.893-.441Zm-37.067,1.7a.5.5,0,0,1,.7.095c.29.382.6.761.925,1.123a.5.5,0,0,1-.745.662c-.34-.382-.667-.781-.974-1.183A.5.5,0,0,1,158.447,104.508Zm34.988,1.557c.3-.374.593-.767.863-1.167a.5.5,0,0,1,.826.559c-.286.422-.594.837-.913,1.233a.5.5,0,0,1-.387.186.5.5,0,0,1-.389-.811Zm-32.345,1.415a.5.5,0,0,1,.7-.047c.361.316.742.626,1.131.92a.5.5,0,0,1-.6.794c-.407-.309-.806-.633-1.186-.964A.5.5,0,0,1,161.091,107.479Zm29.6,1.3c.379-.3.748-.618,1.1-.946a.5.5,0,1,1,.68.727c-.37.347-.761.684-1.161,1a.5.5,0,1,1-.619-.781Zm-26.431,1.1a.5.5,0,0,1,.682-.174c.415.245.844.482,1.28.7a.5.5,0,0,1-.227.943.489.489,0,0,1-.225-.055c-.455-.23-.9-.478-1.336-.733A.5.5,0,0,1,164.261,109.88Zm23.161.969c.435-.215.864-.45,1.278-.695a.5.5,0,0,1,.509.855c-.435.259-.888.506-1.345.732a.5.5,0,0,1-.442-.893Zm-19.615.837a.5.5,0,0,1,.644-.285c.452.174.917.337,1.381.484a.5.5,0,0,1-.151.974.488.488,0,0,1-.151-.024c-.483-.154-.968-.324-1.437-.506A.5.5,0,0,1,167.807,111.686Zm15.986.548c.471-.131.939-.279,1.392-.44a.5.5,0,1,1,.333.939c-.474.168-.965.323-1.458.461a.49.49,0,0,1-.133.017.5.5,0,0,1-.133-.978Zm-12.192.66a.5.5,0,0,1,.591-.382c.474.1.96.191,1.441.265a.5.5,0,0,1-.076.99.517.517,0,0,1-.076,0c-.5-.078-1-.171-1.5-.276A.5.5,0,0,1,171.6,112.894Zm8.362.057c.486-.05.974-.115,1.452-.193a.5.5,0,0,1,.161.983c-.5.082-1.006.149-1.512.2l-.051,0a.5.5,0,0,1-.05-.994Zm-3.9.082c.476.027.959.041,1.435.041h.03a.5.5,0,1,1,0,1h-.03c-.494,0-1-.014-1.492-.042a.5.5,0,0,1,.057-.995Z" transform="translate(-0.003 -4.75)" fill="#f2e4ef" opacity="0.512"/></g><g transform="translate(842.344 2483.607)"><g transform="translate(0 170.725)"><ellipse cx="84.028" cy="6.278" rx="84.028" ry="6.278" transform="translate(177.784 4.069)" fill="url(#a)"/><ellipse cx="19.077" cy="6.278" rx="19.077" ry="6.278" transform="translate(138.769 4.519)" fill="url(#a)"/><ellipse cx="84.027" cy="6.278" rx="84.027" ry="6.278" transform="translate(0 0)" fill="url(#a)"/></g><g transform="translate(208.681 84.531)"><path d="M1620.41,537.206c-5.046-.9-10.806-.137-15.116,2.793a5.349,5.349,0,0,0,.3-1.262,70.123,70.123,0,0,0,6.484-13.365c6.586-5.07,9.062-14.47,5.039-21.939a.349.349,0,0,0-.6,0,51.777,51.777,0,0,0-3.961,10.515,49.374,49.374,0,0,0-1.034,5.388,26.929,26.929,0,0,0-.367,5.744.182.182,0,0,0,.19.181,77.052,77.052,0,0,1-5.5,11.775c.044-.311.1-.621.135-.932a34.2,34.2,0,0,0-.069-8.645c-.111-.8-.224-1.913-1.034-2.345a1.28,1.28,0,0,0-1.67.505,6.514,6.514,0,0,0-.717,3.145q-.213,2.233-.255,4.479c-.041,2.288-.3,5.341,1.142,7.327q-.772.958-1.633,1.851a71.575,71.575,0,0,1-8.324,6.814c2.333-5,4.352-10.666,2.538-16.125-.081-.246-.454-.416-.646-.171a16.685,16.685,0,0,0-3.207,7.722,29.743,29.743,0,0,0-.352,4.568,28.106,28.106,0,0,0,.236,4.971.18.18,0,0,0,.06.1q-3.98,3.067-7.936,6.164c-.216.169.073.548.295.383q4.34-3.229,8.65-6.5c.64.859,2.126,1.252,3.1,1.6a22.954,22.954,0,0,0,4.124,1.063,24,24,0,0,0,8.109-.062,8.255,8.255,0,0,0,3.346-.96c.761-.592.316-1.454-.367-1.877-2.257-1.4-5.377-1.356-7.913-1.105-3.254.322-6.5,1.129-9.779.877.146-.109.292-.217.437-.328a64.865,64.865,0,0,0,8.481-6.993c.438-.469.848-.957,1.25-1.452a.181.181,0,0,0,.3-.1,5.647,5.647,0,0,0,1.839.179q1.354.038,2.71,0a48.64,48.64,0,0,0,5.2-.426c2.317-.315,5.817-.51,6.784-3.091A.38.38,0,0,0,1620.41,537.206Z" transform="translate(-1492.371 -494.033)" fill="url(#d)"/><g transform="translate(5.985 3.827)"><path d="M1505.775,533.158c-.761-4.224-2.309-9.227-6.215-11.58-2.176-1.311-5-1.31-6.437-3.679-1.3-2.135-1.33-4.844-1.648-7.25a55.253,55.253,0,0,0-1.848-8.613c-.629-2.094-1.567-4.385-3.788-5.192-4.348-1.581-8,2.6-8.786,6.451-1.01,4.941,1.227,9.481,3.3,13.825,1.39,2.914,3.21,6.372,2.526,9.71-.6,2.9-3.02,5.022-3.667,7.93a9.561,9.561,0,0,0,1.388,7.392,7.3,7.3,0,0,0,1.052,1.854,9.422,9.422,0,0,0,5.876,3.317,25.215,25.215,0,0,0,7.678-.032,17.026,17.026,0,0,0,6.425-1.916C1506.059,542.8,1506.607,537.78,1505.775,533.158Z" transform="translate(-1476.803 -496.501)" fill="url(#e)"/><path d="M1500.923,547.3c-.884-1.822-1.789-3.63-2.671-5.449.014-.922-.1-1.867-.1-2.782,0-1.159.053-2.32.153-3.474q.151-1.759.469-3.5c.2-1.067.487-2.14.579-3.221a.17.17,0,0,0-.314-.085,20.116,20.116,0,0,0-1.254,6.676,35.438,35.438,0,0,0-.079,3.6c.016.569.019,1.174.06,1.771-.491-1.032-.976-2.067-1.435-3.115-1.482-3.382-2.823-6.828-4.057-10.307-2.392-6.746-4.5-13.617-6.532-20.479a.169.169,0,0,0-.325.09c2,7.013,3.938,14.02,6.329,20.916a138.6,138.6,0,0,0,5.341,13.6c-1.695-.54-3.391-1.082-5.03-1.778q-1.309-.556-2.572-1.216a17.7,17.7,0,0,0-2.409-1.271.252.252,0,0,0-.243.417,10.012,10.012,0,0,0,2.511,1.47q1.225.606,2.494,1.12a26.335,26.335,0,0,0,5.424,1.628,63.094,63.094,0,0,0,3.068,5.73A.344.344,0,0,0,1500.923,547.3Z" transform="translate(-1478.533 -498.575)" fill="#64bb86" style="mix-blend-mode:overlay;isolation:isolate"/></g><g transform="translate(48.546)"><path d="M1585.829,502.909a12.163,12.163,0,0,0-3.138-11.074.428.428,0,0,0-.722.3,10.6,10.6,0,0,1-5.406,8.546c-3.334,1.827-7.4,1.334-10.76,3.125a6.809,6.809,0,0,0-3.1,3.123c-.677,1.513-.578,3.2-1.005,4.779-1.019,3.753-5.457,3.319-8.467,4.1a11.8,11.8,0,0,0-7.3,5.1,9.48,9.48,0,0,0-1.17,4.722c-.034,2.018.292,4.141-.368,6.093-1.079,3.191-4.444,4.726-7.022,6.518a15.663,15.663,0,0,0-5.7,7.1,25.576,25.576,0,0,0-1.554,10.88c.053,1.011.152,2.022.289,3.03a9.828,9.828,0,0,0,.965,7.213,9.266,9.266,0,0,0,11.342,4.77.477.477,0,0,0,.276-.244,31.038,31.038,0,0,0,11.265-2.122,53.421,53.421,0,0,0,11.577-6.429,34.286,34.286,0,0,0,8.587-7.909,14.012,14.012,0,0,0,2.29-4.991,16.322,16.322,0,0,0-.031-5.917c-.324-2.272-.7-4.68.4-6.81a16.7,16.7,0,0,1,3.162-3.846c2.19-2.227,4.19-4.689,3.41-8.015-.87-3.709-4.112-6.531-3.174-10.612C1581.432,510.18,1584.869,507.09,1585.829,502.909Z" transform="translate(-1530.07 -491.711)" fill="url(#f)"/><path d="M1581.763,507.382c.124-.335-.432-.574-.582-.245a278.564,278.564,0,0,1-13.828,25.529,43.417,43.417,0,0,0,1.314-7.575c.146-1.821.148-3.639.124-5.464a49.7,49.7,0,0,1,.373-5.666c.024-.236-.322-.253-.392-.053a16.828,16.828,0,0,0-.551,5.337c-.01,1.764.04,3.525-.062,5.288a45.3,45.3,0,0,1-1.564,9.414c-3.5,5.912-6.948,11.864-10.861,17.5a71.465,71.465,0,0,0,1.307-9.845,47.8,47.8,0,0,0-.543-13.013.169.169,0,0,0-.331.045c.106,4.276.534,8.489.313,12.778a73.028,73.028,0,0,1-1.45,11.049c-1.385,1.953-2.829,3.866-4.359,5.72-2.184,2.646-4.5,5.214-6.917,7.674.156-2.94.209-5.878.137-8.825a60.58,60.58,0,0,0-.74-9.744c-.033-.175-.307-.131-.307.042.01,3.3.383,6.6.486,9.9.094,3,.106,6,.062,9-1.126,1.135-2.267,2.252-3.44,3.327-.246.225.113.572.362.362,1.055-.891,2.08-1.807,3.087-2.738a.141.141,0,0,0,.272-.013.128.128,0,0,0,.118.033c1.412-.3,2.776-.8,4.207-1.069,1.6-.3,3.2-.572,4.8-.856,1.573-.28,3.147-.554,4.717-.85a37.3,37.3,0,0,0,4.874-.973c.288-.1.256-.566-.074-.552a36.574,36.574,0,0,0-4.808.8c-1.632.292-3.261.606-4.89.917-1.6.3-3.2.594-4.788.915a10.47,10.47,0,0,0-4.138,1.406l0-.045a93.817,93.817,0,0,0,11.034-12.293.2.2,0,0,0,.316-.109c.037-.149.064-.3.1-.451.022-.03.043-.061.066-.092q4.452-1.339,8.875-2.774c1.467-.473,2.933-.948,4.395-1.44a28.085,28.085,0,0,0,4.417-1.628c.294-.159.076-.547-.212-.5a27.68,27.68,0,0,0-4.421,1.349c-1.519.511-3.032,1.038-4.544,1.569q-4.092,1.433-8.156,2.936c1.186-1.626,2.336-3.284,3.434-4.991,2.689-4.181,5.179-8.489,7.7-12.775q.538-.916,1.08-1.831c1.578-1.843,3.878-2.8,6.123-3.614,2.309-.837,4.917-1.54,6.725-3.3.125-.122-.038-.342-.189-.245a22.894,22.894,0,0,1-3.7,1.942c-1.274.518-2.584.936-3.863,1.439a14.435,14.435,0,0,0-4.369,2.546c2.006-3.395,4.018-6.788,5.951-10.225A107.313,107.313,0,0,0,1581.763,507.382Z" transform="translate(-1532.041 -494.78)" fill="#e8f7d0" style="mix-blend-mode:overlay;isolation:isolate"/></g><g transform="translate(0 50.167)"><path d="M1518.875,572.828c-1.548-3.2-3.19-6.589-5.683-9.169a25.6,25.6,0,0,0-8.171-5.357c-6.37-2.827-13.608-4.805-20.573-3.266a18.932,18.932,0,0,0-8.416,4.15,18.021,18.021,0,0,0-5.063,8.151c-2.537,7.877-2.007,16.97.547,24.763a.193.193,0,0,0,.268.118,4.411,4.411,0,0,0,2.86,1.613c3.7.725,7.522,1.139,11.274,1.515a144.75,144.75,0,0,0,23.721.563,120.935,120.935,0,0,0,13.137-1.584.469.469,0,0,0,.336-.336C1524.674,586.622,1522.052,579.391,1518.875,572.828Z" transform="translate(-1469.312 -554.498)" fill="url(#g)"/><path d="M1473.046,585.093c-1.116-2.5-2.363-4.932-3.72-7.305q-.008.523,0,1.044c1.2,2.185,2.321,4.417,3.323,6.7q1.184,2.705,2.17,5.492a24.675,24.675,0,0,0,1.127,3.079c.275.048.55.1.825.145a41.746,41.746,0,0,1-1.766-4.4Q1474.1,587.443,1473.046,585.093Zm-3.568-10.221c3.627,6.32,5.6,13.552,9.479,19.711.323.045.645.094.968.137-4.01-6.554-6.3-14.008-10.376-20.515C1469.526,574.427,1469.5,574.649,1469.477,574.872Zm48.038-4.742c-1.26,4.229-2,8.67-2.95,12.972q-.728,3.292-1.455,6.585c-.44,2.008-.974,4.054-1.271,6.1.127-.011.254-.019.381-.03.586-1.93.971-3.962,1.423-5.918q.781-3.381,1.551-6.764c.919-4.009,2.056-8.047,2.74-12.114C1517.8,570.679,1517.658,570.405,1517.516,570.13Zm-14.569-5.2q-.047-2.674-.093-5.347c-.012-.713-.013-1.433-.02-2.155-.254-.1-.51-.2-.766-.3.019.82.052,1.64.067,2.451q.049,2.574.1,5.149.1,5.446.215,10.892c.143,6.858.314,13.715.475,20.572.158,0,.316,0,.474,0-.089-6.856-.166-13.714-.273-20.57Q1503.041,570.279,1502.947,564.932Zm-13.054,9.545q-1.109-5.009-2.165-10.028c-.352-1.673-.695-3.349-1.05-5.021-.322-1.517-.574-3.081-1-4.577-.165.027-.329.063-.494.094.341,3.11,1.2,6.238,1.852,9.287q1.092,5.113,2.237,10.213,2.271,10.1,4.785,20.151a.237.237,0,0,0,.457-.126Q1492.1,584.5,1489.893,574.477Zm-15.456-13.6c-.156.188-.3.383-.451.577,2.135,5.719,4.294,11.429,6.417,17.152,2.082,5.611,3.968,11.348,6.311,16.857.24.023.479.045.72.066-1.755-5.869-4.118-11.606-6.284-17.333C1478.957,572.408,1476.739,566.628,1474.437,560.88Zm39.786,4c-.182-.225-.375-.442-.567-.658-.646,2.455-.992,5.035-1.422,7.524q-.711,4.122-1.284,8.263-1.106,7.956-1.675,15.963c.117-.007.234-.01.351-.018.578-5.459,1.254-10.911,2.061-16.342q.6-4.038,1.3-8.061C1513.365,569.335,1513.884,567.112,1514.223,564.882Zm-22.865.121a95.976,95.976,0,0,0-1.8-10.126c-.059-.212-.405-.178-.392.053a93.115,93.115,0,0,0,1.536,9.845q.832,4.979,1.676,9.956,1.692,10.05,3.449,20.088c.045.254.426.145.385-.106q-1.6-9.975-3.236-19.943Q1492.167,569.885,1491.358,565Z" transform="translate(-1469.314 -554.546)" fill="#ffb38d" style="mix-blend-mode:overlay;isolation:isolate"/></g><g transform="translate(47.667 57.778)"><path d="M1581.253,577.025c-1.306-5.684-5-10.245-10.685-11.9-12.554-3.651-26.373,2.133-34.541,11.839a27.888,27.888,0,0,0-6.4,13.326,18.456,18.456,0,0,0-.585,6.5.511.511,0,0,0,.368.483c16.266,2.639,32.761,1.171,49.077-.054a.45.45,0,0,0,.417-.318C1580.758,590.529,1582.782,583.678,1581.253,577.025Z" transform="translate(-1528.97 -564.023)" fill="url(#h)"/><path d="M1579.637,572.16a57.74,57.74,0,0,0-2.442,5.853q-1.4,3.471-2.805,6.938c-1.757,4.335-3.457,8.705-5.316,13l.627-.044c1.726-4.142,3.553-8.242,5.272-12.389q1.4-3.367,2.755-6.748c.769-1.913,1.712-3.859,2.309-5.856C1579.91,572.658,1579.777,572.406,1579.637,572.16Zm-48.94,15.234c-.019-.1-.035-.2-.054-.293-.139.452-.276.9-.388,1.362.258,1.218.532,2.431.838,3.638.482,1.894,1.031,3.771,1.629,5.633.189.025.38.043.57.067q-.88-2.91-1.6-5.866C1531.331,590.428,1530.995,588.915,1530.7,587.394Zm1.848-2.388c-.083-.7-.136-1.409-.19-2.116-.223.437-.428.881-.626,1.329a58.662,58.662,0,0,0,1.059,6.2,52.864,52.864,0,0,0,2.181,7.576c.164.018.327.041.491.057a72.587,72.587,0,0,1-2.082-7.8C1533.026,588.52,1532.754,586.767,1532.546,585.006Zm12.259-11.75c-.082-1.18-.13-2.376-.191-3.572q-.4.256-.789.523c.087,1.089.186,2.174.26,3.246.2,2.96.444,5.833.711,8.859q.724,8.213,1.652,16.407l.488.01q-.851-8.3-1.5-16.613C1545.212,579.163,1545.011,576.209,1544.805,573.256Zm28.77,1.192c.838-2.142,1.851-4.252,2.666-6.414-.169-.144-.343-.283-.518-.419-1.024,2.027-1.812,4.225-2.629,6.313-1.145,2.927-2.111,5.618-3.007,8.3-1.746,5.238-3.2,10.561-4.419,15.946l.52-.033q1.881-7.874,4.442-15.569Q1572,578.477,1573.575,574.448Zm-34.929-.013q-.353.348-.7.7.3,3.651.718,7.29c.6,5.157,1.407,10.28,2.4,15.375.061.309.522.176.47-.13-.923-5.347-1.647-10.562-2.215-15.83Q1538.919,578.145,1538.646,574.436Zm25.172-6.914q-.451,2.281-.86,4.571-.8,4.484-1.442,8.994c-.833,5.865-1.4,11.609-1.8,17.422l.509-.022q.726-8.928,2.036-17.794.647-4.408,1.449-8.794c.469-2.562,1.2-5.171,1.542-7.77q-.36-.029-.719-.048C1564.233,565.212,1564.041,566.393,1563.818,567.522Z" transform="translate(-1529.228 -564.035)" fill="#b06a13" style="mix-blend-mode:overlay;isolation:isolate"/></g></g><g transform="translate(132.08 0)"><path d="M1443.466,565.749c-.347-2.438-1.253-5.069-3.84-5.252a7.69,7.69,0,0,0-5.068,1.053c-1.682,1.2-1.974,2.992-1.959,5.1a41.76,41.76,0,0,0,1.1,9.011c.67,2.937.988,5.9,2.7,8.386a3.989,3.989,0,0,0,3.326,1.616c1.418.021,2.133-.68,2.906-1.957,1.462-2.413,1.557-5.461,1.429-8.253C1443.91,572.294,1443.917,568.916,1443.466,565.749Z" transform="translate(-1393.189 -440.973)" fill="#3b395a"/><path d="M1433.189,438.317a5.6,5.6,0,0,0-2.189-.745c-1.086-.253-2.186-.445-3.291-.6a36.677,36.677,0,0,0-5.961-.418,8.829,8.829,0,0,0-2.5.374,3.343,3.343,0,0,0-1.932,1.2,1.062,1.062,0,0,0-.047.117l-.021-.033a.162.162,0,0,0-.28.164c.063.133.131.269.195.4a4.916,4.916,0,0,0,.421,1.634,12.075,12.075,0,0,0,1.445,2.863,4.507,4.507,0,0,0,1.779,1.532,4.1,4.1,0,0,0,.885.523,10.088,10.088,0,0,0,2.012.5c.376.072.754.141,1.13.211a6.461,6.461,0,0,0,.94.152,6.271,6.271,0,0,0,3.76-.394,7.534,7.534,0,0,0,3.576-3.608C1433.649,441.092,1434.4,439.268,1433.189,438.317Z" transform="translate(-1390.043 -416.068)" fill="#3b395a"/><path d="M1436.59,452.79a9.122,9.122,0,0,0-5.291-2.761q-.533-2.428-1.171-4.832a.379.379,0,0,0-.269-.27,33.588,33.588,0,0,0-8.388-.309.331.331,0,0,0-.32.319c-.165,1.677-.424,3.351-.572,5.03-.228.042-.456.079-.683.127a15.034,15.034,0,0,0-2.5.833.487.487,0,0,0-.675.308,4.3,4.3,0,0,0,1.6,4.568,9.544,9.544,0,0,0,5.629,1.777c4.5.189,8.8-1.787,12.543-4.094A.45.45,0,0,0,1436.59,452.79Z" transform="translate(-1389.962 -417.662)" fill="#ffc19b"/><path d="M1474.786,430.6c-.026-1.31-.1-2.772-1.152-3.706a2.845,2.845,0,0,0-4.7,1.9s0,.007,0,.012a.379.379,0,0,0-.154.269c-.419,3.928-.993,7.836-1.772,11.709-.67,3.338-1.582,6.613-2.367,9.921-2.539-.435-5.078-.875-7.621-1.294-1.541-.253-3.082-.521-4.63-.73a17.1,17.1,0,0,0-3.97-.295h0c-2.355-.391-4.216,1.358-4.913,3.483a19.557,19.557,0,0,0-.69,4.369c-.068.763-.152,1.525-.23,2.288a4.915,4.915,0,0,0,.009,2.255,3.31,3.31,0,0,0,2.441,1.629,18.582,18.582,0,0,0,4.485.546c3.338.082,6.673.047,10.009-.074,3.357-.121,6.705-.4,10.052-.678,1.069-.09,1.881-.266,2.168-1.419.4-1.6.527-3.316.774-4.943a173.966,173.966,0,0,0,2.183-19.574C1474.779,434.379,1474.825,432.488,1474.786,430.6Z" transform="translate(-1395.17 -413.982)" fill="#ffc19b"/><path d="M1442.595,466.488a3.31,3.31,0,0,0,2.441,1.629,18.585,18.585,0,0,0,4.485.546c3.338.082,6.673.047,10.009-.074,3.357-.121,6.705-.4,10.052-.678,1.069-.09,1.881-.266,2.168-1.419.4-1.6.527-3.316.774-4.943.354-2.323.7-4.65,1.014-6.981l-3.787,10.024s-26.061-2.7-26.936-2.646c-.068.763-.152,1.525-.23,2.288A4.915,4.915,0,0,0,1442.595,466.488Z" transform="translate(-1395.17 -419.69)" fill="url(#i)"/><path d="M1396.528,527.628a14.6,14.6,0,0,0-.539-3.167,3.688,3.688,0,0,0-1.716-2.047,11.722,11.722,0,0,0-2.749-1.4,5.252,5.252,0,0,0-3.429.105c-1.724-.279-2.895,1.463-3.566,2.85a9.574,9.574,0,0,0-1.118,6.033,5.29,5.29,0,0,0,3.246,3.994,8.525,8.525,0,0,0,5.591-.248,6.461,6.461,0,0,0,3.8-3.155A5.993,5.993,0,0,0,1396.528,527.628Z" transform="translate(-1383.276 -432.997)" fill="#48456e"/><path d="M1405.885,464.032a47.116,47.116,0,0,0-1.748-8.665.238.238,0,0,0-.113-.289c-.207-.3-.768-.121-.635.278.026.079.046.16.071.239-2.729,4.778-5.432,9.575-8.047,14.417-1.308,2.423-2.578,4.867-3.759,7.354q-.845,1.78-1.62,3.591c-.231.542-.514,1.114-.753,1.7-1.1,1.659-.971,4.3-.946,6.1.022,1.644.029,3.293.094,4.936,0,.073.008.149.013.224a.2.2,0,0,0-.054.137c.013.4.022.793.033,1.19.327,3.2.6,6.41.845,9.611a41.166,41.166,0,0,1-.073,7.743c-.067.62-.125,1.229-.166,1.831q.054,1.413.106,2.825c.061,1.58.135,3.3,1.572,4.272,2.731,1.85,6.065-.262,6.726-3.161a8.889,8.889,0,0,0-.758-5.353c-.893-2.285-.778-4.839-.754-7.257.048-4.689,1.057-9.575.173-14.228q-.034-.864-.094-1.727c-.077-1.115-.2-2.221-.338-3.33-.041-.33-.073-.674-.106-1.019.292-.306.573-.61.85-.879,1.712-1.668,3.675-3.049,5.436-4.662,2.237-2.049,4.453-5.146,4.4-8.283A28.911,28.911,0,0,0,1405.885,464.032Z" transform="translate(-1384.289 -419.762)" fill="#ffc19b"/><path d="M1397.521,493.18q-.034-.864-.094-1.727c-.077-1.115-.2-2.221-.338-3.329-.041-.33-.073-.674-.106-1.019.292-.306.573-.61.85-.879,1.712-1.668,3.675-3.049,5.436-4.662,2.237-2.05,4.453-5.146,4.4-8.283a28.942,28.942,0,0,0-.359-7.6q-.164-1.276-.362-2.545c-1.06,1.716-11.327,21.357-11.514,22.674-.127.886,1.159,11.328,2.058,18.405C1397.756,500.531,1398.206,496.786,1397.521,493.18Z" transform="translate(-1385.719 -421.412)" fill="url(#j)"/><path d="M1402.915,537.482a14.61,14.61,0,0,0-.539-3.167,3.687,3.687,0,0,0-1.715-2.047,11.756,11.756,0,0,0-2.749-1.4,5.264,5.264,0,0,0-3.429.106c-1.724-.278-2.895,1.464-3.566,2.851a9.579,9.579,0,0,0-1.119,6.033,5.29,5.29,0,0,0,3.247,3.993,8.521,8.521,0,0,0,5.591-.249,6.457,6.457,0,0,0,3.8-3.154A6,6,0,0,0,1402.915,537.482Z" transform="translate(-1384.56 -434.977)" fill="#3b395a"/><path d="M1423.162,552.323q-2.995-.133-5.989-.256l-2.794-.113a3.576,3.576,0,0,0-1.922.157,1.186,1.186,0,0,0-.528.841,15.108,15.108,0,0,0-.053,2.872q-.013,2.983,0,5.966.059,9.5.448,19c-.376,5.047-.212,10.171-.169,15.228q.041,4.625.148,9.248.072,2.9.239,5.8c.1,1.786-.02,3.871.607,5.553.291.78.869.861,1.649.916a24.225,24.225,0,0,0,4.057.277c.961-.1,1.7.022,2.009-.941a21.854,21.854,0,0,0,.361-3.39c.178-1.132.229-2.3.3-3.453.159-2.636.312-21.488.459-24.124q.43-7.711.793-15.426.418-8.9.734-17.807A.356.356,0,0,0,1423.162,552.323Z" transform="translate(-1389.015 -439.252)" fill="#ffc19b"/><path d="M1417.991,616.632l.222.027c.736.088,1.96.513,2.594-.053.617-.551.436-1.917.481-2.623q.122-1.976.241-3.954c.159-2.636.312-21.488.459-24.124q.43-7.711.793-15.426.418-8.9.734-17.807a.356.356,0,0,0-.352-.349q-2.995-.133-5.989-.256l-2.794-.113a3.575,3.575,0,0,0-1.922.157,1.186,1.186,0,0,0-.528.841,9.834,9.834,0,0,0-.066,2.276l6.756,2.091Z" transform="translate(-1389.015 -439.252)" fill="url(#k)"/><path d="M1426.735,513.9a.447.447,0,0,0-.557-.422c-.149.023-.3.042-.448.064a.466.466,0,0,0-.216-.069,142.1,142.1,0,0,0-15.644.189.43.43,0,0,0-.3.138l0,.006a.425.425,0,0,0-.076.445c-.38,10.566-.477,21.142-.592,31.714a.357.357,0,0,0,.261.341,65.217,65.217,0,0,0,17.939.983.376.376,0,0,0,.371-.368C1427.2,535.917,1426.928,524.912,1426.735,513.9Z" transform="translate(-1388.425 -431.5)" fill="#707abd"/><path d="M1426.315,513.482c-.15.023-.3.042-.449.064a.466.466,0,0,0-.216-.069,142.1,142.1,0,0,0-15.644.189.43.43,0,0,0-.3.138l0,.006a.425.425,0,0,0-.076.445c-.019.519-.03,1.04-.046,1.559l12.643,2.286,1.651,29.351q1.677-.055,3.362-.158a.376.376,0,0,0,.371-.368c-.266-11.006-.536-22.012-.729-33.02A.447.447,0,0,0,1426.315,513.482Z" transform="translate(-1388.562 -431.5)" fill="url(#l)"/><path d="M1441.409,453.513a45.748,45.748,0,0,0-9.464-1.312.346.346,0,0,0-.639-.091,6.505,6.505,0,0,1-1.36,1.835,9.161,9.161,0,0,1-1.9,1.251,10.18,10.18,0,0,1-4.662,1.119c-2.878-.014-5.953-1.434-6.384-4.458a.968.968,0,0,0,.081-.059.283.283,0,0,0-.124-.469l-.019,0a.132.132,0,0,0-.251-.022,3.51,3.51,0,0,0-.806.189l-1.263.357c-.873.246-1.742.5-2.612.759l-2.521.739c-.421.124-.839.247-1.252.4a3.137,3.137,0,0,0-.923.411.151.151,0,0,0,.066.251c.033.006.071,0,.106,0,0,.007-.01.012-.012.02l0,.018-.042,0c-.006,0-.01.006-.017.007a.3.3,0,0,0-.523.194c.235,7.822.731,15.642,1.087,23.461q.264,5.767.511,11.535c.17,3.974.236,7.969.534,11.935a.209.209,0,0,0,.13.18c.008.112.01.224.021.336a.471.471,0,0,0,.459.459c9.248.121,18.493.121,27.741.084a.386.386,0,0,0,.377-.377c.577-8.077,1.282-16.148,1.922-24.22q.474-5.957.956-11.912c.329-4.1.528-8.227,1.02-12.309A.325.325,0,0,0,1441.409,453.513Z" transform="translate(-1388.022 -419.017)" fill="#ff9b0e"/><path d="M1445.8,454.087a.324.324,0,0,0-.238-.312,47.669,47.669,0,0,0-8.4-1.254c-2.848,6.212-9.592,7.605-9.592,7.605s1.606,35.649,1.888,42.794c1.916,0,3.831,0,5.747-.007l6.777-1.459c.563-7.718,1.23-15.432,1.843-23.147q.473-5.957.956-11.912C1445.113,462.3,1445.312,458.168,1445.8,454.087Z" transform="translate(-1392.179 -419.278)" fill="url(#m)"/><path d="M1446.163,509.422a12.3,12.3,0,0,0-1.172-3.92,9.527,9.527,0,0,0-4.333-5.61,5.386,5.386,0,0,0-7.009,1.523.1.1,0,0,0-.154.014c-2.684,5.5-3.316,11.749-3.348,17.793a56.489,56.489,0,0,0,.392,9.073,6.581,6.581,0,0,0,4.163,5.5c4.488,1.726,10.071-.42,11.032-5.395a27.687,27.687,0,0,0,.319-4.483q.072-2.654.154-5.305A55.246,55.246,0,0,0,1446.163,509.422Z" transform="translate(-1392.694 -428.665)" fill="url(#n)"/><path d="M1446.22,508.161c-.113-3.453-.757-7.249-3.043-9.983-2.232-2.669-5.6-1.942-7.8.38-2.439,2.577-3.163,6.4-3.317,9.824-.194,4.3.257,8.644.487,12.932.379,7.972.867,15.94,1.325,23.907q.114,1.985.229,3.968c.071,1.212-.084,2.438.046,3.644a9.967,9.967,0,0,0,.667,2.86c.558,1.328,1.346.717,2.19.113a2.433,2.433,0,0,1,2.55-.3c.637.244,1.043.32,1.5-.311a5.686,5.686,0,0,0,.758-2.35,20.339,20.339,0,0,0,.387-2.509c.067-1.142.358-2.32.524-3.456q.291-2,.563-4,.533-3.947.984-7.905.794-6.969,1.33-13.964A118.572,118.572,0,0,0,1446.22,508.161Z" transform="translate(-1393.073 -428.112)" fill="#ffc19b"/><path d="M1443.535,513.366s-1.834,29.7-2.71,44.666a3.767,3.767,0,0,1,.507.153c.637.244,1.044.32,1.5-.311a5.687,5.687,0,0,0,.758-2.35,20.363,20.363,0,0,0,.386-2.509c.067-1.142.358-2.32.524-3.456q.291-2,.563-4,.533-3.947.984-7.905.793-6.969,1.33-13.964a118.635,118.635,0,0,0,.618-12.848c-.011-.346-.033-.7-.056-1.049A10.047,10.047,0,0,1,1443.535,513.366Z" transform="translate(-1394.843 -430.788)" fill="url(#o)"/><path d="M1481.882,421.464c-3.686-2.659-8.854-1.109-11.011,2.733-1.167,2.079-1.679,5-.472,7.173a5.31,5.31,0,0,0,2.393,2.22,7.8,7.8,0,0,0,10.419-1.257A7.518,7.518,0,0,0,1481.882,421.464Z" transform="translate(-1400.648 -412.769)" fill="#3b395a"/><path d="M1430.6,449c.432-.475.825-.965,1.2-1.463q-.285-1.172-.593-2.339a.379.379,0,0,0-.269-.27,33.588,33.588,0,0,0-8.388-.309.331.331,0,0,0-.32.319c-.093.936-.21,1.873-.325,2.809a15.626,15.626,0,0,0,1.774,1.378,8.414,8.414,0,0,0,3.55,1.538C1428.7,450.828,1429.666,450.02,1430.6,449Z" transform="translate(-1391.04 -417.662)" fill="#db9d77"/><path d="M1441.818,428.687a2.147,2.147,0,0,0-2.3.6c-.014,0-.026,0-.039,0-.571.205-.648.95-.69,1.48a16.434,16.434,0,0,0-.022,1.8c.01.312.029.622.046.934a2.338,2.338,0,0,0,.145.916,1,1,0,0,0,1.361.392c.542-.265.763-.9,1.006-1.411.276-.578.553-1.155.805-1.743C1442.514,430.771,1443,429.2,1441.818,428.687Z" transform="translate(-1394.427 -414.46)" fill="url(#o)"/><path d="M1435.315,421.329c-.277-2.256-1.222-4.168-3.393-5.106a13.656,13.656,0,0,0-7.627-.717c-2.718.463-5.979,1.576-7.774,3.8a8.064,8.064,0,0,0-1.4,6.609,37.163,37.163,0,0,0,.662,7.423,8.849,8.849,0,0,0,4.034,5.461,19.212,19.212,0,0,0,3.562,1.745c1.057.408,2.413,1.147,3.573.891,2.278-.5,4.553-2.514,5.976-4.274a11.328,11.328,0,0,0,1.741-2.789,13.761,13.761,0,0,0,.571-4.387A49.358,49.358,0,0,0,1435.315,421.329Z" transform="translate(-1389.638 -411.792)" fill="#ffc19b"/><path d="M1419.388,422.334s7.733.619,10.516.773,3.377,2.654,4.176,4.794a17.794,17.794,0,0,0,2.009,3.453c.017-.416.029-.829.051-1.23a49.358,49.358,0,0,0,.071-8.652,6.913,6.913,0,0,0-1.427-3.659l-7.2-1.821Z" transform="translate(-1390.534 -411.937)" fill="url(#q)"/><path d="M1415.484,430.182a5.252,5.252,0,0,0-.419-1.3,1.076,1.076,0,0,0-.184-.487,2.109,2.109,0,0,0-.414-.421,1.6,1.6,0,0,0-1.206-.3c-.919.165-1.21,1.371-1.27,2.159a5.024,5.024,0,0,0,2.589,4.528.459.459,0,0,0,.543-.07,3.109,3.109,0,0,0,.581-2.564A10.034,10.034,0,0,0,1415.484,430.182Z" transform="translate(-1389.045 -414.279)" fill="url(#r)"/><path d="M1444.106,411.472a7.029,7.029,0,0,1-4.405,1.639,15.345,15.345,0,0,1-4.66-.439c-3.2-.707-6.227-1.839-9.55-1.751a16.678,16.678,0,0,0-8.629,2.6c-1.648,1.1-3.073,2.879-2.994,4.822-.888.434-1.294,1.868-1.425,2.765a2.874,2.874,0,0,0,.361,2.061c.445.635,1.2.917,1.464,1.676a15.832,15.832,0,0,0,.985,6.8.323.323,0,0,0,.468.19c.594-.4.556-1.269.617-1.911a23.49,23.49,0,0,0,.093-2.872,24.688,24.688,0,0,0-.234-2.765,9.881,9.881,0,0,0-.489-2.319c2.853.9,5.682-.276,8.5-.968a14.07,14.07,0,0,1,5.03-.331,18.934,18.934,0,0,1,4.95,1.506c.033.014.065.019.1.031a22.469,22.469,0,0,0-.194,3.424c-.009,1.283.011,2.569.074,3.85.014.276.436.451.57.154a15.59,15.59,0,0,0,.887-4.475q.154-1.19.276-2.384a2.378,2.378,0,0,0,.018-.419c1.864-.312,3.562-2.125,4.76-3.421,1.879-2.031,3.977-4.309,3.958-7.248A.316.316,0,0,0,1444.106,411.472Z" transform="translate(-1389.13 -410.916)" fill="#3b395a"/><path d="M1408.546,635.514c-.13-2.253,3.3-3.662,4.765-4.927a6.506,6.506,0,0,1,2.338-1.348,5.719,5.719,0,0,1,4.822,1.26c.955.861,2.115,1.568,3.006,2.5a3.086,3.086,0,0,1,.9,2.792c-.179,2.229-2.213,2.916-4.175,3.207a26.406,26.406,0,0,1-9.1-.527,3.539,3.539,0,0,1-2.49-2.548A2.3,2.3,0,0,1,1408.546,635.514Z" transform="translate(-1388.355 -454.765)" fill="#3b395a"/></g><g transform="translate(187.797 63.169)"><path d="M1455.268,607.568s7.644-.81,11.385-2.236V600.11l-8.222.548Z" transform="translate(-1445.605 -492.137)" fill="url(#s)"/><path d="M1445.021,605.063c1.628-1.451,3.353-2.791,5.1-4.1a54.854,54.854,0,0,1,4.8-3.435,5.881,5.881,0,0,1,4.966-.864,4.638,4.638,0,0,1,.55.254c.079.066.161.132.248.2s.175.141.262.212a14.894,14.894,0,0,1,1.234,1.267c.248.309.5.618.737.931q.487.638.994,1.259a2.222,2.222,0,0,1-.237,1.076,4.737,4.737,0,0,1-1.65,1.636c-.807.55-1.623,1.087-2.434,1.631-.672.451-9.492,3.966-11.911,4.761-1.34.441-3.353.88-4.208-.645C1442.575,607.644,1443.88,606.077,1445.021,605.063Z" transform="translate(-1443.174 -491.393)" fill="#3b395a"/><path d="M1513.908,559.31c-.666-1.653-2.924-2.389-4.395-3.1a76.28,76.28,0,0,0-12.483-4.727.432.432,0,0,0-.546.46c-.017.01-.037.008-.051.026-2.155,2.684-1.583,6.493-1.389,9.686.247,4.06.684,8.107,1.255,12.133q.877,6.174,2.209,12.27c.123.563.255,1.123.384,1.684a50.248,50.248,0,0,0-5.2.547,62.788,62.788,0,0,1-11.48.838c-4.276-.156-8.549-.709-12.832-.589a2.357,2.357,0,0,0-1.641.373c-.517.509-.352,1.5-.367,2.147l-.149,6.657a.4.4,0,0,0,.125.314.17.17,0,0,0,.091.241c3.285,1.255,7.092,1.04,10.553,1.222,3.874.205,7.749.374,11.624.546a111.148,111.148,0,0,0,11.268.123,44.724,44.724,0,0,0,5.4-.616,23.667,23.667,0,0,0,2.958-.67,5.275,5.275,0,0,0,1.143-.3c2.927-1.151,3.3-4.482,3.389-7.226.264-8.586.353-17.18.383-25.77q.006-1.783.006-3.568A7.242,7.242,0,0,0,1513.908,559.31Z" transform="translate(-1448.008 -482.36)" fill="url(#t)"/><path d="M1505.978,590.51q-.138-1.459-.3-2.916-.338-2.911-.726-5.818c-.573-4.282-1.235-8.554-2.091-12.789-.053-.262-.44-.148-.4.109,1.178,7.052,2.2,14.1,2.9,21.219a6.873,6.873,0,0,1,.115,2.29c-.3,1.091-1.66,1.136-2.584,1.282q-2.756.434-5.529.745c-3.494.392-6.984.69-10.5.793q-2.924.085-5.849.032c-2.01-.037-4.031-.214-6.04-.178-.2,0-.266.337-.05.368a69.422,69.422,0,0,0,11.354.264c3.826-.1,7.67-.322,11.472-.761q2.749-.318,5.484-.752c1.19-.189,2.562-.392,2.818-1.787A7.779,7.779,0,0,0,1505.978,590.51Z" transform="translate(-1449.529 -485.852)" fill="#b5bbeb"/><path d="M1509.812,589.9a69.688,69.688,0,0,1-.716-7.162c-.115-2.327-.125-4.659-.3-6.983-.16-2.157-.318-4.582-1.329-6.529-.114-.218-.394-.052-.365.154.283,2.019.808,3.968.984,6.011.169,1.948.209,3.9.291,5.857a99.791,99.791,0,0,0,1.292,11.849,4.685,4.685,0,0,1-.228,3.073,3.6,3.6,0,0,1-2.1,1.54,18.33,18.33,0,0,1-4.985.553c-4.245.173-8.483.346-12.732.354-4.768.01-9.563.028-14.324-.236-.232-.013-.234.355,0,.362,9.221.267,18.427.545,27.652.159,2.594-.109,6.676-.112,7.422-3.325C1510.8,593.776,1510.085,591.684,1509.812,589.9Z" transform="translate(-1449.597 -485.91)" fill="#b5bbeb"/><path d="M1542.533,468.931a24.667,24.667,0,0,0-8.051-3.718,12.659,12.659,0,0,0-7.957,1.09,19.486,19.486,0,0,0-6.562,4.655,10.794,10.794,0,0,0-2.483,7.141c-.079,3.071.232,6.124-1.513,8.831-1.567,2.431-3.738,4.471-5.591,6.679a24.193,24.193,0,0,0-4.148,6.469,15.9,15.9,0,0,0-.859,8.279c.928,6.092,5.045,11.249,10.125,14.529.3.2.612-.127.558-.43a7.467,7.467,0,0,1,2.232-6.672c1.349-1.3,3.028-2.236,4.251-3.667a5.272,5.272,0,0,0,1.255-4.479c-.352-1.957-1.522-3.655-1.91-5.6-.895-4.483,4.724-5.954,6.744-9.081,2.546-3.941,1.878-8.866,2.9-13.244,1.259-5.41,5.807-8.213,10.549-10.366l.167.093A.294.294,0,0,0,1542.533,468.931Z" transform="translate(-1455.635 -464.977)" fill="#3b395a"/><path d="M1518.208,551.238c-2.079-.308-4.172-.571-6.236-.968-2.007-.386-3.979-.964-5.941-1.536a.3.3,0,0,0-.547-.193c-.4.6-1.662,2.321-.84,2.977a4.632,4.632,0,0,0,1.877.662,16.028,16.028,0,0,0,2.157.243,42.251,42.251,0,0,0,9.53-.545A.334.334,0,0,0,1518.208,551.238Z" transform="translate(-1455.474 -481.745)" fill="#ffc19b"/><path d="M1573.2,608.823a6.379,6.379,0,0,0-4.176-2.067,52.771,52.771,0,0,0-6.884-.3c-2.588-.022-5.176.018-7.761.14-1.179.055-3.372-.191-4.248.877a.2.2,0,0,0-.222.093,7.542,7.542,0,0,0-.849,2.667,4.807,4.807,0,0,0,.031,2.259c.253.628.862.689,1.471.785a19.273,19.273,0,0,0,3.1.216c4.614-.02,9.266-.523,13.868-.849l3.355-.238a5.118,5.118,0,0,0,2.259-.459C1574.388,611.2,1573.958,609.763,1573.2,608.823Z" transform="translate(-1464.431 -493.411)" fill="#3b395a"/><path d="M1549.282,536.984a16.846,16.846,0,0,1-3.407-7.974c-.628-3.2-1.16-6.417-1.755-9.623a.307.307,0,0,0,.051-.4c-.537-.867-.021-1.951-.959-2.633a3.616,3.616,0,0,0-2.57-.36c-1.467.213-3.882,1.191-3.635,3.013a35.767,35.767,0,0,0,.927,3.857c.334,1.322.683,2.64,1.066,3.949a59.862,59.862,0,0,0,2.306,6.549,7.542,7.542,0,0,0,.268.784,18.859,18.859,0,0,0,1.551,2.728,27.482,27.482,0,0,0,2.9,3.943q.205.5.384,1.012c.245.706.374,1.309,1.23,1.286a7.134,7.134,0,0,0,3.41-1.319C1552.695,540.671,1550.1,537.964,1549.282,536.984Z" transform="translate(-1462.03 -475.215)" fill="url(#u)"/><path d="M1558.524,550.947a3.669,3.669,0,0,0-2.329-2c-.045-.026-.084-.058-.13-.082a9.035,9.035,0,0,0-4.69-.647c-4.81.288-9.6.951-14.382,1.51-3.284.384-6.568.735-9.852,1.031q-3.212.288-6.44.5c-2.781.176-5.585.272-8.365.192-.352-.008-.7-.024-1.063-.032a23.585,23.585,0,0,1-6.879-.967.327.327,0,0,0-.551-.256c-1.358,1.294-1.614,3.292-1.854,5.066a11.685,11.685,0,0,0,.376,5.937c1.446,3.556,5.673,5.745,9.181,6.7,4.362,1.175,8.677.328,12.992-.623q7.395-1.642,14.8-3.284c1.946-.428,3.924-.825,5.872-1.318-.324,2.032-.567,4.083-.87,6.091-1.23,8.15-2.6,16.29-3.679,24.463a10.8,10.8,0,0,0-.531,2.934.515.515,0,0,0,.369.485,7.969,7.969,0,0,0,2.567.427,13.425,13.425,0,0,0,5.472-.634,8.685,8.685,0,0,0,1.66-.554c.5-.276.521-.827.618-1.333.05-.264.1-.53.159-.8q.023-.108.049-.218c.247-1.036.5-2.07.751-3.106q.727-3.008,1.455-6.017c1.892-7.842,3.99-15.669,5.609-23.573C1559.467,557.737,1559.975,553.893,1558.524,550.947Z" transform="translate(-1454.955 -481.698)" fill="#6c7bc1"/><path d="M1553.979,572.395c-1.23,8.15-2.6,16.29-3.679,24.463a10.806,10.806,0,0,0-.531,2.934.515.515,0,0,0,.369.485,7.969,7.969,0,0,0,2.567.427,10.475,10.475,0,0,0,1.424.066c.219-8.9.828-34.116.721-34.466C1554.524,568.336,1554.281,570.387,1553.979,572.395Z" transform="translate(-1464.598 -485.342)" fill="url(#v)"/><path d="M1537.1,516.891c-1.262,1.718-2.78,3.236-4.091,4.906a32.217,32.217,0,0,0-3.564,5.521,20.285,20.285,0,0,0-1.917,6.848,37.275,37.275,0,0,0-.168,3.891,26.319,26.319,0,0,1-.016,2.749.576.576,0,0,1,.12.256q-3.212.288-6.44.5c-2.78.176-5.585.272-8.365.192-.352-.008-.7-.024-1.063-.032a24.419,24.419,0,0,1-3.268-.895,15.154,15.154,0,0,1-4.858-2.461.169.169,0,0,1-.024-.216.2.2,0,0,1-.016-.24c.959-1.31,2.205-2.413,3.228-3.667a36.845,36.845,0,0,0,6.879-13.279c.975-3.54,1.1-7.135,1.558-10.755a13.629,13.629,0,0,1,2.245-6.52,7.474,7.474,0,0,1,6.927-3.715,15.822,15.822,0,0,1,9.908,5.929C1536.149,509.013,1539.817,513.192,1537.1,516.891Z" transform="translate(-1455.279 -472.005)" fill="#ff7377"/><path d="M1535.808,518.481l2.427,8.791c.416-.592.843-1.178,1.288-1.749,1.311-1.67,2.829-3.188,4.091-4.906.1-.14.179-.281.263-.423C1540.8,520.38,1535.808,518.481,1535.808,518.481Z" transform="translate(-1461.793 -475.73)" fill="url(#w)"/><path d="M1532.276,528.741c-2.432-7.384-8.041-24.152-9.006-24.634a5,5,0,0,0-2.515-.064c-.1.145-.217.284-.313.436a10.022,10.022,0,0,0-1.613,3.369,30.016,30.016,0,0,0,1.117,7.317c2.088,8.2,5.722,18.171,6.8,20.181.848,1.573,2.123,3.189,3.711,3.522v-.015a37.278,37.278,0,0,1,.168-3.891A20.43,20.43,0,0,1,1532.276,528.741Z" transform="translate(-1458.38 -472.801)" fill="url(#x)"/><path d="M1538.919,505.155a14.155,14.155,0,0,0-3.88-3.163,12.763,12.763,0,0,0-5.363-2,.385.385,0,0,0,.3.356s0,.01.008.015a15.77,15.77,0,0,0,1.964,1.253,15.078,15.078,0,0,1,1.994,1.479c.568.512,1.083,1.081,1.654,1.59a4.7,4.7,0,0,0,1.874,1.169A1.2,1.2,0,0,0,1538.919,505.155Z" transform="translate(-1460.56 -472.015)" fill="#ffc19b"/><path d="M1553.416,538.387c-2.2-1.036-5.176-1.985-7.651.181-.139-.119-1.786-.932-2.625-1.413a25.624,25.624,0,0,1-4.045-2.849,1.761,1.761,0,0,1-.36-.229c-.133-.114-.269-.221-.4-.332l-.172-.13c-.368-.274-.736-.544-1.1-.827a9.617,9.617,0,0,1-1.531-1.423,5.71,5.71,0,0,1-.717-1.028c-.114-.228-3.791-12.747-4.654-17.3a59.439,59.439,0,0,0-2.615-6.919,12.816,12.816,0,0,0-1.8-2.92,5.214,5.214,0,0,0-.483-.316,4.237,4.237,0,0,0-4.023-.238,5.016,5.016,0,0,0-2.29,3.712c-.8,4.488,1.64,8.8,3.517,12.693q2.056,4.264,4.15,8.507c.435,1.337.844,2.688,1.388,4a11.592,11.592,0,0,0,2.763,4.148,27.431,27.431,0,0,0,4.738,3.218c1.8,1.071,4.047,2.805,6.339,3.411a5.948,5.948,0,0,0,3.652,1.068,6.22,6.22,0,0,0,3.735-1.38c1.246-1.029,2.205-2.841,3.993-2.944C1553.563,539.053,1553.77,538.554,1553.416,538.387Z" transform="translate(-1458.374 -472.466)" fill="#ffc19b"/><path d="M1537.261,500.953a8.5,8.5,0,0,1,.339-2.45c.046-.527.183-1.036.238-1.557.036-.354-.143-.538-.38-.782-.382-.4-.765-.79-1.146-1.187q-1.213-1.267-2.447-2.514a.284.284,0,0,0-.443.041c-.714,1.28-1.444,2.552-2.168,3.827a25.327,25.327,0,0,0-1.263,2.212c-.182.456.318.286.68.584a23.335,23.335,0,0,0,3.29,2.085c1.131.646,2.292,1.235,3.473,1.782A12.922,12.922,0,0,1,1537.261,500.953Z" transform="translate(-1460.616 -470.484)" fill="#ffc19b"/><path d="M1536.962,494.977q-1.213-1.267-2.447-2.514a.284.284,0,0,0-.444.041c-.291.521-.588,1.039-.882,1.558a13.76,13.76,0,0,0,1.307,2.457,11.722,11.722,0,0,0,3.426,4.062,8.317,8.317,0,0,1,.328-2.078c.046-.527.183-1.036.237-1.557.036-.354-.143-.538-.38-.782C1537.727,495.769,1537.343,495.374,1536.962,494.977Z" transform="translate(-1461.266 -470.484)" fill="url(#y)"/><path d="M1549.231,478.627c.673-2.511-1.014-4.583-3.05-5.837a9.175,9.175,0,0,0-7.485-1.1,7.14,7.14,0,0,0-2.525,1.477,29.365,29.365,0,0,0-2.786,6.35,14.274,14.274,0,0,0,.023,7.735,1.212,1.212,0,0,1,.01.6,9.953,9.953,0,0,0,4.942,5.108c1.352.629,3.22,1.368,4.486.226.726-.656,1.172-1.583,1.855-2.284a8.8,8.8,0,0,1,3.03-2.014.317.317,0,0,0,.189-.459,6.511,6.511,0,0,1-.471-5.18C1547.887,481.65,1548.8,480.225,1549.231,478.627Z" transform="translate(-1461.2 -466.251)" fill="#ffc19b"/><path d="M1548.788,493.255a2.657,2.657,0,0,0-.013,1.253,9.055,9.055,0,0,1,2.14-1.232C1550.389,493.2,1548.955,493,1548.788,493.255Z" transform="translate(-1464.385 -470.635)" fill="url(#z)"/><path d="M1550.749,478.523s-4.279,2.423-5.825,3.608-2.939,6.753-2.99,8.351a20.753,20.753,0,0,0,.154,3.093s-1.907-2.165-1.134-6.6a68.9,68.9,0,0,1,1.959-8.145l5.515-2.32Z" transform="translate(-1462.79 -467.295)" fill="url(#aa)"/><path d="M1549.83,470.945a7.148,7.148,0,0,0-6.291-2.4.089.089,0,0,0-.039-.022,6.518,6.518,0,0,0-2.741.378,12.648,12.648,0,0,0-2.68,1.079,9.662,9.662,0,0,0-3.985,4.56,18.1,18.1,0,0,0-.892,12.665c.092.313.47,1.141.54.8a12.058,12.058,0,0,1,8.737-9.362.38.38,0,0,0,.121-.051,10.978,10.978,0,0,0,3.062-.6c.769-.241,1.531-.505,2.31-.714a2.257,2.257,0,0,1,.69-.155c.256.026.2.161.2.339a1.346,1.346,0,0,0,.133.822.3.3,0,0,0,.506,0,13.8,13.8,0,0,0,1.408-4.063A4.827,4.827,0,0,0,1549.83,470.945Z" transform="translate(-1461.12 -465.681)" fill="#3b395a"/><path d="M1540.786,481.946a.165.165,0,0,0-.113-.1,2.583,2.583,0,0,0-.689-1.323,1.634,1.634,0,0,0-2.635.163,3.1,3.1,0,0,0,.3,2.846,4.049,4.049,0,0,0,1,1.143,3.791,3.791,0,0,0,.582.381,2.055,2.055,0,0,0,.739.276c.344.021.5-.256.626-.529a4.2,4.2,0,0,0,.313-.911A3.153,3.153,0,0,0,1540.786,481.946Z" transform="translate(-1462.056 -467.984)" fill="#ffc19b"/><path d="M1542.958,480.944a2.215,2.215,0,0,0,.208-1.083,1,1,0,0,0-1.02-.936c-.753.069-1.014.824-1.135,1.456a18.664,18.664,0,0,0-.479,3.1.22.22,0,0,0,.051.141c0,.109,0,.218.009.328a2.611,2.611,0,0,1-.021,1.006,2.756,2.756,0,0,1-.515.836c-1.5,2.079-.551,4.709.334,6.818a.328.328,0,0,0,.632-.174,11.486,11.486,0,0,1-.24-2.924,4.349,4.349,0,0,1,1.182-2.56,3.61,3.61,0,0,0,1.025-2.017,15.315,15.315,0,0,0-.263-2.542A3.288,3.288,0,0,1,1542.958,480.944Z" transform="translate(-1462.488 -467.779)" fill="#3b395a"/><path d="M1556.284,601.753a.025.025,0,0,0,0,.05A.025.025,0,0,0,1556.284,601.753Z" transform="translate(-1465.903 -492.467)" fill="#b5bbeb"/><path d="M1558.049,555.711c-1.387-1.339-3.44-1.094-5.168-.782-5.252.944-10.547,1.422-15.86,1.859a125.312,125.312,0,0,0-17.093,2.241c-.244.054-.141.427.1.373,9.47-2.085,19.212-2.049,28.8-3.305,1.033-.136,2.066-.285,3.094-.456a11.911,11.911,0,0,1,4.061-.355,2.737,2.737,0,0,1,2.426,2.53,15.106,15.106,0,0,1-.6,3.768c-.993,4.81-1.983,9.62-3,14.425q-1.745,8.206-3.715,16.361a.318.318,0,0,0,.614.169c2.614-10.439,4.656-21.018,6.773-31.567C1558.812,559.266,1559.494,557.108,1558.049,555.711Z" transform="translate(-1458.573 -483.007)" fill="#b5bbeb"/><path d="M1554.171,561.756a1.319,1.319,0,0,0-1.3-.766,34.29,34.29,0,0,0-3.6.181q-6.935.424-13.82,1.389c-5.273.737-10.5,1.748-15.69,2.936-.188.043-.109.332.08.289a181.868,181.868,0,0,1,26.126-3.9c2.135-.165,4.276-.308,6.417-.378a1.36,1.36,0,0,1,1.364,1.167,9.31,9.31,0,0,1-.221,1.721q-.234,1.713-.5,3.422-.966,6.265-2.326,12.466c-1.039,4.765-2.317,9.455-3.524,14.177a.206.206,0,0,0,.4.109,156.221,156.221,0,0,0,6.1-27.365q.224-1.558.423-3.119A4.83,4.83,0,0,0,1554.171,561.756Z" transform="translate(-1458.547 -484.272)" fill="#b5bbeb"/></g><g transform="translate(19.871 79.966)"><path d="M1257.379,561.515a19.907,19.907,0,0,1-3.854-1.811.347.347,0,0,0,.057-.109,6.7,6.7,0,0,0,.183-1.639,11.493,11.493,0,0,0-.046-1.609,13.632,13.632,0,0,0-.266-1.628,2.693,2.693,0,0,0-.519-1.325,1.259,1.259,0,0,0-1.916.437,3.887,3.887,0,0,0,0,2.685,7.872,7.872,0,0,0,.919,2.14,29.31,29.31,0,0,1-5.315-5.054,7.621,7.621,0,0,0,.686-1.568,15.347,15.347,0,0,0,.579-1.835,7.155,7.155,0,0,0,.037-3.7c-.13-.441-.314-1.1-.775-1.3a.909.909,0,0,0-1.111.507,6.385,6.385,0,0,0-.622,1.716,10.271,10.271,0,0,0-.114,4.506c-.041-.055-.083-.109-.124-.165a64.488,64.488,0,0,1-3.686-5.727c.646-1.236,1.307-2.466,1.934-3.711a5.537,5.537,0,0,0,.8-3.4c-.082-.446-.293-1.078-.773-1.234-.512-.167-1.022.306-1.366.629a5.6,5.6,0,0,0-1.566,2.844,9.754,9.754,0,0,0-.137,2.968,37.558,37.558,0,0,1-2.693-5.2,2.225,2.225,0,0,0,.388-1.2,18.451,18.451,0,0,0-.128-2.671,9.883,9.883,0,0,0-.918-4.438c-.542-.9-2.189-2.143-3.091-.937a3.956,3.956,0,0,0-.254,2.387,13.164,13.164,0,0,0,.39,2.757,6.863,6.863,0,0,0,2.86,4.19.272.272,0,0,0,.129.267,27.119,27.119,0,0,0,2.512,5.048,16,16,0,0,0-3.532-1.816,3.232,3.232,0,0,0-1.856-.241,1.429,1.429,0,0,0-.721,2.473,5.164,5.164,0,0,0,3.226,1.4,11.436,11.436,0,0,0,2.125.027c.356-.025.713-.054,1.065-.105.168-.024.345-.042.517-.076.063.044.125.091.189.134a.225.225,0,0,0,.029.014c1,1.724,2.041,3.421,3.182,5.052-.212-.1-.424-.195-.634-.273a6.585,6.585,0,0,0-3.548-.305,2.365,2.365,0,0,0-1.532.8,1.323,1.323,0,0,0,0,1.521c.726,1.063,2.294,1.3,3.476,1.4a7.618,7.618,0,0,0,2.292-.149,6.8,6.8,0,0,0,1.636-.552.391.391,0,0,0,.184.043,28.112,28.112,0,0,0,6.591,5.97c-1.969-.492-4.34-.546-5.96.7a1.182,1.182,0,0,0-.513,1.286,1.476,1.476,0,0,0,.951.856,5.41,5.41,0,0,0,3.111-.125,8.767,8.767,0,0,0,3.417-1.815.415.415,0,0,0,.137-.222,20.448,20.448,0,0,0,3.836,1.648C1257.546,562.064,1257.665,561.613,1257.379,561.515Z" transform="translate(-1233.008 -494.675)" fill="url(#ab)"/><path d="M1364.477,524.216c.1-.342-.378-.66-.626-.364a72.522,72.522,0,0,0-11.968,19.776c-.861,2.114-1.525,4.28-2.251,6.435q-1.288-5.793-2.048-11.684a.31.31,0,0,0,.077-.04c3.431-2.993,5.333-7.79,7.062-11.885q1.426-3.379,2.574-6.866c.654-1.988,1.717-4.341,1.087-6.453a.308.308,0,0,0-.557-.073,92.122,92.122,0,0,0-10.478,23.351c-.177-1.564-.335-3.131-.455-4.7-.161-2.1-.256-4.2-.3-6.292a.241.241,0,0,0,.193-.2c1.184-5.336,2.088-10.786,2.775-16.208a85.006,85.006,0,0,0,.628-16.644c-.018-.264-.416-.437-.551-.149a52.62,52.62,0,0,0-4.888,25.233,38.86,38.86,0,0,0,1.127,7.894c.128,4.089.467,8.175.992,12.215-.2-.2-.41-.4-.631-.613a8.626,8.626,0,0,1-1.981-3.05c-.976-2.351-1.773-4.783-2.7-7.155-1.865-4.789-3.881-9.518-5.993-14.2-.148-.329-.6-.128-.624.169a29.918,29.918,0,0,0,11.869,25.768,3.547,3.547,0,0,1,.235.4q.446,3.171,1.033,6.3c.268,1.417.567,2.826.883,4.232a17.037,17.037,0,0,0-2.243-2.5c-1.692-1.624-3.4-3.23-5.1-4.844q-5.1-4.842-10.2-9.69a.338.338,0,0,0-.561.327c2.592,8.8,10.76,14.234,18.376,18.454.028.056.06.109.086.165a.229.229,0,0,0,.115.11c.348,1.439.714,2.874,1.11,4.3a.231.231,0,0,0,.446-.123c-.369-1.375-.707-2.758-1.031-4.145a.3.3,0,0,0,.2-.114A72.217,72.217,0,0,0,1364.477,524.216Z" transform="translate(-1252.671 -487.219)" fill="url(#ac)"/><g transform="translate(28.022)"><path d="M1288.512,516.036c-.152-4.259-.44-8.519-.914-12.755a47.779,47.779,0,0,0-2.4-11.387,11.814,11.814,0,0,0-2.492-4.538,5.3,5.3,0,0,0-3.844-1.354c-3.249.1-5.63,2.61-7.146,5.257-3.754,6.551-3.779,14.566-3.575,21.9a137.336,137.336,0,0,0,2.977,24.6,20.249,20.249,0,0,0,.764,3.989c.442,1.351,1.607,1.435,2.867,1.385,4.093-.163,8.177-.489,12.251-.9a.423.423,0,0,0,.407-.407A167.369,167.369,0,0,0,1288.512,516.036Z" transform="translate(-1268.078 -485.998)" fill="url(#ad)"/><path d="M1269.776,508.792c-.365-2.686-.686-5.389-1.083-8.076-.105.693-.189,1.391-.26,2.092.264,1.91.551,3.817.812,5.723q.807,5.9,1.613,11.8c1.04,7.617,2.059,15.237,3.193,22.841.111,0,.222.01.336.009-.932-7.538-1.978-15.061-3-22.587Q1270.579,514.693,1269.776,508.792Zm15.856-7.193c-.012-2.876.013-5.756-.008-8.634-.113-.342-.225-.683-.351-1.021-.1-.276-.21-.56-.321-.845-.076,6.607.066,13.227.094,19.832q.044,10.821.106,21.643c.017,3.29.056,6.581.094,9.87l.481-.046C1285.758,528.8,1285.689,515.2,1285.632,501.6Zm-15.715-6.055q-.3.893-.535,1.807c.378,5.043,1.277,10.1,2.12,15.026,1.178,6.886,2.539,13.74,3.575,20.65.5,3.345.932,6.7,1.227,10.073l.353-.017c-1.087-13.267-4.245-26.237-5.936-39.428C1270.375,500.956,1270.148,498.25,1269.917,495.543Zm11.268,1.644c-.046-3.579.016-7.155.094-10.732a5.158,5.158,0,0,0-.642-.213,200.512,200.512,0,0,0,.207,21.381c.392,7.948.961,15.885,1.384,23.831.2,3.734.4,7.478.444,11.22l.421-.035c-.277-7.212-.555-14.417-.969-21.625C1281.667,513.077,1281.289,505.138,1281.186,497.188Zm-6.7-9.265q-.283.244-.548.511a71.264,71.264,0,0,0,.991,9.391q.722,5.607,1.371,11.222,1.309,11.33,2.324,22.69.5,5.584.925,11.174l.41-.028q-1.619-21.793-4.323-43.485A90.469,90.469,0,0,1,1274.487,487.922Z" transform="translate(-1268.15 -486.047)" fill="#ffb38d" style="mix-blend-mode:overlay;isolation:isolate"/></g><g transform="translate(6.434 2.276)"><path d="M1273.01,543.024c-4.349-16.619-9.786-33.29-18.456-48.212-1.681-2.894-4.156-6.084-7.877-5.961-3.362.111-5.081,3.246-5.48,6.236-.563,4.228.7,8.451,2.236,12.344s3.262,7.711,5.008,11.5c1.462,3.178,3.005,6.319,4.658,9.4a.236.236,0,0,0-.185.36c3.3,5.787,6.905,11.392,10.278,17.133a.485.485,0,0,0,.536.218q4.477-1.224,8.955-2.445A.476.476,0,0,0,1273.01,543.024Z" transform="translate(-1241.06 -488.847)" fill="#ff9b1e"/><path d="M1273.01,543.024c-4.349-16.619-9.786-33.29-18.456-48.212-1.681-2.894-4.156-6.084-7.877-5.961-3.362.111-5.081,3.246-5.48,6.236-.563,4.228.7,8.451,2.236,12.344s3.262,7.711,5.008,11.5c1.462,3.178,3.005,6.319,4.658,9.4a.236.236,0,0,0-.185.36c3.3,5.787,6.905,11.392,10.278,17.133a.485.485,0,0,0,.536.218q4.477-1.224,8.955-2.445A.476.476,0,0,0,1273.01,543.024Z" transform="translate(-1241.06 -488.847)" fill="url(#ae)"/><path d="M1251.838,513.788c-1.953-3.735-4.051-7.386-5.872-11.191-1.528-3.194-2.809-6.478-4.133-9.749a9.3,9.3,0,0,0-.3.9c.951,2.516,2.069,4.983,3.187,7.4,1.768,3.828,3.789,7.515,5.795,11.221,4.012,7.416,6.65,15.452,10.533,22.936,1.773,3.417,3.717,6.744,5.8,9.984l.346-.094a126.522,126.522,0,0,1-10.372-20.158C1255.263,521.239,1253.745,517.435,1251.838,513.788Zm-10.582-14.221a23.417,23.417,0,0,0,.443,2.455q.158.346.315.694,2.578,5.721,5.3,11.376,5.454,11.3,11.539,22.29c1.791,3.233,3.664,6.412,5.567,9.576l.276-.075c-7.845-13.746-15.179-27.791-21.639-42.244C1242.458,502.3,1241.877,500.926,1241.256,499.567Zm3.736-10.263a4.818,4.818,0,0,0-.492.237c2.74,6.561,5.726,13.031,8.593,19.532q5.09,11.542,10.25,23.054,2.833,6.3,5.744,12.557l.167-.046c-6.749-15.168-13.358-30.4-20.022-45.608C1247.813,495.794,1246.437,492.533,1244.992,489.3Zm9.817,10.451c-1.115-2.9-2.167-5.826-3.178-8.765a9.415,9.415,0,0,0-.821-.689c2.163,6.617,4.829,13.073,7.5,19.5,3.155,7.593,6.4,15.151,9.27,22.86q2.095,5.636,3.862,11.387l.251-.069C1267.414,528.761,1260.462,514.474,1254.809,499.755Z" transform="translate(-1241.099 -488.939)" fill="#ffd49e" style="mix-blend-mode:multiply;isolation:isolate"/></g><g transform="translate(17.692 48.316)"><path d="M1314.709,551.536c-4.231-4.6-10.743-5.3-16.642-5.013-3.643.175-7.269.63-10.922.574a102.511,102.511,0,0,0-10.452-.111,19.7,19.7,0,0,0-8.8,2.845,37.564,37.564,0,0,0-7.11,6.005,19.467,19.467,0,0,0-4.809,7.642,20.126,20.126,0,0,0-.615,8.655c.844,6.171,4.182,11.568,8.172,16.218.566.658,1.152,1.3,1.748,1.929a8.047,8.047,0,0,0,2.75,3.152c2.556,1.767,5.814,1.966,8.82,1.924,7.372-.1,14.745-.465,22.108-.812q5.662-.266,11.32-.617,1.289-.078,2.58-.16a10.861,10.861,0,0,0,2.366-.215c1.306-.391,1.36-1.99,1.574-3.108a153.5,153.5,0,0,0,2.654-21.368C1319.745,562.954,1319.047,556.253,1314.709,551.536Z" transform="translate(-1255.151 -546.468)" fill="url(#af)"/><path d="M1294.242,594.011c-.006-.034-.051-.059-.074-.02s.021.079.055.054c.012-.009.03,0,.049.011a.063.063,0,0,1-.017-.011C1294.242,594.034,1294.245,594.026,1294.242,594.011Zm.042.054.01.007a.23.23,0,0,0-.023-.015Zm15.516-16.573a71.856,71.856,0,0,0,5.011-5.375c.186-.243-.191-.465-.392-.3a54.871,54.871,0,0,0-5.118,5.179c-.83.877-1.643,1.772-2.466,2.657.618-2.284,1.09-4.618,1.606-6.924q.417-1.864.834-3.728a24.113,24.113,0,0,0,.665-3.678c.015-.241-.316-.249-.392-.054a24.425,24.425,0,0,0-.952,3.7q-.4,1.867-.808,3.736c-.537,2.487-1.142,4.98-1.536,7.494,0,.027.011.045.015.07-.682.737-1.376,1.464-2.051,2.208-3.113,3.437-6.2,6.909-9.12,10.516q-1.315-6.105-2.661-12.2a.217.217,0,0,0,.192-.111c2.006-3.583,3.628-7.431,5.39-11.139a106.983,106.983,0,0,0,5-10.962c.068-.2-.226-.309-.332-.139a109.664,109.664,0,0,0-5.443,11.109c-1.661,3.525-3.491,7.031-4.935,10.652-.087-.392-.172-.785-.259-1.178q-1.158-5.217-2.314-10.434c-.766-3.451-1.327-7.04-2.345-10.426a.344.344,0,0,0-.662.182c.516,3.5,1.528,6.987,2.3,10.439q.492,2.2.984,4.4-5.429-2.854-10.922-5.573c-3.766-1.858-7.5-3.916-11.424-5.421-.29-.111-.461.34-.207.49,3.639,2.168,7.609,3.841,11.431,5.665q5.571,2.657,11.2,5.17.636,2.848,1.272,5.694,1.526,6.828,3.095,13.646c-.951-.426-1.922-.8-2.847-1.3a36.671,36.671,0,0,1-3.224-2.022c-1.114-.765-2.216-1.536-3.34-2.276a.093.093,0,0,0-.053-.167c-.061,0-.121.014-.181.018-.959-.626-1.932-1.231-2.945-1.779-1.771-.957-3.6-1.8-5.438-2.614a32.707,32.707,0,0,0-2.357-2.543c-.9-.976-1.76-1.981-2.614-2.994s-1.691-2.06-2.493-3.124a27.1,27.1,0,0,0-2.391-3.115c-.163-.161-.372.042-.294.227a16.289,16.289,0,0,0,2.192,3.3q1.193,1.573,2.466,3.082c.854,1.011,1.753,1.984,2.671,2.936.539.559,1.1,1.185,1.7,1.743l-.966-.42a30.026,30.026,0,0,1-7.062-3.747.225.225,0,0,0-.318.317c1.674,2.035,4.3,2.938,6.649,3.952,2.656,1.147,5.329,2.272,7.886,3.631.76.4,1.495.845,2.222,1.3-.723.146-1.442.359-2.143.537-1.2.3-2.4.642-3.594.966s-2.388.67-3.581,1.01c-.6.17-1.195.336-1.787.522a2.708,2.708,0,0,0-1.323.618.228.228,0,0,0,.1.375,2.7,2.7,0,0,0,1.451-.173c.6-.154,1.195-.332,1.791-.5,1.192-.344,2.385-.683,3.572-1.043s2.38-.706,3.561-1.086c.835-.268,1.725-.5,2.543-.851,1.352.865,2.674,1.774,4.018,2.661,1.834,1.211,4.007,2.684,6.245,3.06.017.074.034.149.052.224l-.057.07a.174.174,0,0,0,.139.284q.055.242.112.484l-.357-.233-.111-.073-.048-.031.029.021.087.059.162.11.24.162q.3,1.308.6,2.616l.542-.025q-.384-1.787-.766-3.574,2.314-2.52,4.6-5.07c.008,0,.015,0,.023,0,2.422-1.129,4.876-2.184,7.348-3.2q1.772-.731,3.564-1.413a27.494,27.494,0,0,0,3.519-1.342c.263-.144.073-.5-.192-.456a21.557,21.557,0,0,0-3.87,1.366c-1.131.438-2.257.888-3.373,1.361-2.169.918-4.292,1.934-6.392,3,1.466-1.628,2.931-3.256,4.419-4.864Q1307.309,580.146,1309.8,577.492Zm-11.821-15.347q.035,1.118.069,2.236a9.215,9.215,0,0,0,.142,2.183.126.126,0,0,0,.241,0,8.8,8.8,0,0,0,.05-2.1q-.013-1.16-.026-2.321c-.008-.745-.014-1.49-.025-2.236,0-.372-.014-.745-.022-1.118a4.435,4.435,0,0,0-.073-1.09.221.221,0,0,0-.422,0,8.77,8.77,0,0,0-.006,2.122C1297.928,560.6,1297.955,561.371,1297.979,562.144Z" transform="translate(-1257.382 -548.695)" fill="#adfacc" style="mix-blend-mode:overlay;isolation:isolate"/></g><g transform="translate(76.501 63.033)"><path d="M1374.7,570.713a12.7,12.7,0,0,0-10.246-5.779c-4.549-.292-9.269.854-13.6,2.141a39.259,39.259,0,0,0-12.462,5.964c-6.8,5.106-11.827,14.619-8.684,23.061a2.439,2.439,0,0,0,.144,1.03c.4.931,1.61.913,2.463.968,1.144.073,2.292.122,3.438.133,1.631.127,3.273.191,4.889.275q8.458.435,16.928.058,4.131-.185,8.253-.547,1.962-.172,3.92-.38a4.079,4.079,0,0,0,2.6-.932,6.821,6.821,0,0,0,1.368-2.511q.738-1.9,1.4-3.838a39.067,39.067,0,0,0,1.872-7.513A18.2,18.2,0,0,0,1374.7,570.713Z" transform="translate(-1328.752 -564.887)" fill="url(#ag)"/><path d="M1372.592,587.469a24.971,24.971,0,0,1-4.47,2.015c-.653.24-1.291.511-1.922.8.086-.106.169-.214.256-.32q.713-.867,1.455-1.707c.482-.546.974-1.082,1.465-1.618.24-.26.48-.519.724-.776a3.713,3.713,0,0,0,.682-.9.227.227,0,0,0-.307-.308,6.165,6.165,0,0,0-1.586,1.494c-.5.557-.986,1.13-1.46,1.711q-.673.827-1.32,1.676c-.307.4-.623.809-.908,1.232-.507.259-1.011.527-1.5.814-3.23,1.878-6.34,3.976-9.467,6.017l.986-4.179c.284-1.2.569-2.4.846-3.608a26.1,26.1,0,0,0,.7-3.285.125.125,0,0,0,.094-.047c1.7-2.051,3.345-4.148,5.063-6.185l.073-.086a.174.174,0,0,0,.214.084c1.784-.7,3.538-1.463,5.287-2.244q1.3-.579,2.588-1.173a13.269,13.269,0,0,0,2.533-1.374c.168-.129-.017-.379-.194-.334a13.733,13.733,0,0,0-2.491,1.047q-1.321.641-2.65,1.266c-1.628.766-3.27,1.505-4.9,2.268.693-.827,1.381-1.66,2.085-2.478a29.913,29.913,0,0,0,2.511-2.989c.167-.256-.186-.468-.391-.3a22.329,22.329,0,0,0-2.688,2.888c-.888,1.024-1.772,2.053-2.616,3.113-1.585,1.99-3.137,4.009-4.544,6.13a.168.168,0,0,0-.054-.024.137.137,0,0,0,.013-.073c-.177-1.089-.541-2.163-.821-3.23q-.409-1.556-.715-3.135-.318-1.654-.512-3.328c-.063-.552-.1-1.107-.164-1.659a3.422,3.422,0,0,0-.255-1.273.171.171,0,0,0-.308.04,3.42,3.42,0,0,0-.062,1.47c.038.554.107,1.107.176,1.658q.2,1.637.52,3.258a22.086,22.086,0,0,0,1.879,6.307c0,.006.007,0,.01.009a.208.208,0,0,0-.066.073,22.548,22.548,0,0,0-.9,3.592c-.277,1.2-.546,2.411-.816,3.616q-.341,1.511-.679,3.023c-1.509-3.031-3.414-5.926-5.211-8.787q-1.371-2.183-2.765-4.351a34.75,34.75,0,0,0-2.955-4.3c-.174-.2-.444.054-.344.264a39.531,39.531,0,0,0,2.708,4.383q1.444,2.238,2.864,4.493c.1.152.189.308.285.461-.66-.264-1.349-.468-2.016-.71-.9-.323-1.793-.642-2.676-1-.907-.368-1.811-.739-2.7-1.151a11.837,11.837,0,0,0-2.508-1.108.264.264,0,0,0-.255.438,8.394,8.394,0,0,0,2.523,1.454c.834.391,1.68.769,2.545,1.089.889.329,1.789.645,2.707.886a14.262,14.262,0,0,0,2.644.527c1.638,2.647,3.227,5.368,5.05,7.881l-.227,1.008c-2.572-1.156-5.133-2.344-7.663-3.587q-2.08-1.021-4.14-2.087a32.739,32.739,0,0,0-4.068-2.017c-.255-.089-.347.261-.168.4a25.871,25.871,0,0,0,4.185,2.339q2.069,1.049,4.169,2.035c2.5,1.175,5.037,2.265,7.6,3.294q-.265,1.179-.529,2.358c-.065.289.376.413.445.123l.541-2.292c.123.049.244.1.367.152.183.072.316-.24.135-.32-.14-.062-.278-.128-.417-.19l.051-.219a.2.2,0,0,0,.289.077c3.271-1.917,6.483-3.952,9.79-5.8a32.293,32.293,0,0,1,4.935-2.237,9.344,9.344,0,0,0,3.774-2.012A.294.294,0,0,0,1372.592,587.469Z" transform="translate(-1330.514 -566.581)" fill="#64bb86" style="mix-blend-mode:overlay;isolation:isolate"/></g></g><g transform="translate(35.791 27.967)"><path d="M1296.054,536.151a3.449,3.449,0,0,0,0-.807c-.37-2.923-3.222-5.574-5.631-6.975-2.359-1.372-5.839-2.609-7.9-.158-.605.718-1.19,1.472-1.757,2.238-1.9,2.057-3.778,4.154-5.472,6.363a7.491,7.491,0,0,0-1.819,5.846c0,.557.026,1.089.052,1.55a.287.287,0,0,0,.109.217,25.709,25.709,0,0,0,.962,6.5c1.134,4.254,2.729,8.4,4.145,12.565,1.453,4.28,2.893,8.565,4.362,12.839q1.1,3.206,2.2,6.414c.351,1.026.657,2.082,1.07,3.085a2.626,2.626,0,0,0,1.186,1.419c1.2.633,2.805.2,4.011-.206,1.157-.391,2.362-1.046,2.559-2.37a5.881,5.881,0,0,0-.444-2.563c-.314-1.014-.634-2.026-.935-3.044a37.059,37.059,0,0,1-1.423-6.443c-.225-2.041-.193-4.1-.488-6.137a38.937,38.937,0,0,0-1.516-6.076c-1.337-4.241-2.71-8.471-4.062-12.708-.049-.153-.1-.309-.149-.464q.358-.264.7-.54c1.46-1.175,2.888-2.389,4.294-3.628.078-.07.156-.141.235-.21.1-.086.2-.177.3-.265q1.2-1.057,2.364-2.153.547-.515,1.084-1.04c.13-.129.269-.25.4-.381.1-.1.193-.2.287-.309.6-.6,1.21-1.191,1.794-1.811A.469.469,0,0,0,1296.054,536.151Z" transform="translate(-1257.042 -442.202)" fill="#ffc19b"/><path d="M1298.129,536.151a3.456,3.456,0,0,0,0-.807c-.37-2.923-3.222-5.574-5.631-6.975-2.359-1.372-5.839-2.609-7.9-.158q-.456.541-.9,1.1l6.194,9.939-5.723,6.5s5.1,13.609,6.032,19.021a91.585,91.585,0,0,0,3.247,13.764,63.764,63.764,0,0,1,1.94,7.576,2.338,2.338,0,0,0,.816-1.437,5.881,5.881,0,0,0-.444-2.563c-.314-1.014-.634-2.026-.935-3.044a37.073,37.073,0,0,1-1.423-6.444c-.224-2.041-.193-4.1-.488-6.137a38.938,38.938,0,0,0-1.516-6.076c-1.337-4.241-2.71-8.471-4.062-12.708-.049-.153-.1-.309-.148-.464q.358-.264.7-.54c1.46-1.175,2.888-2.389,4.294-3.628.078-.07.156-.141.235-.21.1-.086.2-.177.3-.265q1.2-1.057,2.364-2.153.546-.515,1.084-1.04c.13-.129.269-.25.4-.381.1-.1.193-.2.287-.309.6-.6,1.21-1.191,1.794-1.811A.469.469,0,0,0,1298.129,536.151Z" transform="translate(-1259.117 -442.202)" fill="url(#ah)"/><path d="M1368.228,539.8c-1.134-1.045-2.149-.473-3.342.165-1.572.84-3.1,1.759-4.658,2.621a32.863,32.863,0,0,1-5.062,2.348c-1.74.606-3.544.995-5.3,1.542a17.632,17.632,0,0,0-5.561,2.843c-.436.265-.855.554-1.263.855-.692-1.016-1.44-1.97-2.113-2.829l-.032-.04a.351.351,0,0,0,.034-.035,13.485,13.485,0,0,1-1.326-1.959c-.608-.686-1.2-1.385-1.754-2.111q-.909-1.465-1.818-2.928c-.288-.405-.574-.813-.853-1.226-1-1.133-2.023-2.256-2.955-3.439-1.3-.2-2.941.6-4.07.992a33.838,33.838,0,0,0-4.762,2.064c-.932.494-2.783,1.151-2.927,2.4a1.732,1.732,0,0,0,.017.42.167.167,0,0,0,.01.181c.01.015.023.03.034.045.292,1.162,1.572,2.288,2.215,3.083,2.294,2.839,10.6,11.8,11.683,12.643.51.4,1.034.79,1.578,1.147a12.762,12.762,0,0,0,2.517,1.77,6.828,6.828,0,0,0,1.13.456,3.43,3.43,0,0,0,2.9.38,29.169,29.169,0,0,0,4.885-1.822c3.443-1.512,6.446-3.906,9.472-6.1,2.9-2.109,5.762-4.29,8.443-6.678,1.21-1.078,2.828-2.237,3.634-3.667A2.427,2.427,0,0,0,1368.228,539.8Z" transform="translate(-1266.504 -443.964)" fill="#ffc19b"/><path d="M1342.948,550.036c-.666-.965-1.378-1.87-2.021-2.691l-.032-.04a.351.351,0,0,0,.034-.035,13.485,13.485,0,0,1-1.326-1.959c-.608-.686-1.2-1.385-1.754-2.111q-.909-1.465-1.818-2.928c-.288-.405-.574-.813-.853-1.226-1-1.133-2.023-2.256-2.955-3.439-1.3-.2-2.941.6-4.07.992a33.838,33.838,0,0,0-4.762,2.064c-.932.494-2.783,1.151-2.927,2.4a1.732,1.732,0,0,0,.017.42.167.167,0,0,0,.01.181c.01.015.023.03.034.045a3.465,3.465,0,0,0,.511,1.057c4.089-.409,11.673-1.178,12.124-1.29C1333.74,541.334,1341.908,549.05,1342.948,550.036Z" transform="translate(-1266.504 -443.964)" fill="url(#ai)"/><path d="M1369.269,548a21.5,21.5,0,0,0,3.322-3.182l-1.95-2.236s-4.33,4.639-5.568,6.031-14.382,9.9-18.712,11.443a8.8,8.8,0,0,1-6.391-.019,12.633,12.633,0,0,0,2.469,1.73,6.829,6.829,0,0,0,1.13.456,3.429,3.429,0,0,0,2.9.38,29.172,29.172,0,0,0,4.885-1.822c3.443-1.512,6.446-3.906,9.471-6.1C1363.73,552.566,1366.589,550.385,1369.269,548Z" transform="translate(-1270.426 -445.371)" fill="url(#aj)"/><path d="M1327.294,531.42c-1.98-4.574-3.846-9.2-5.777-13.8q-.653-1.553-1.3-3.109a8.981,8.981,0,0,0-1.142-2.41c-1.026-1.2-3.337-1.285-4.789-1.368a16.952,16.952,0,0,0-4.854.447c-2.5-1.771-5.358-3.265-8.5-3.069a10.161,10.161,0,0,0-7.236,4.3c-1.853,1.921-3.551,4-5.2,6.092-.918,1.16-1.81,2.341-2.686,3.532-.508.69-1.785,1.831-1.493,2.786.129.423.541.657.872.91q.906.692,1.766,1.437a40.659,40.659,0,0,1,3.162,3.05,40.169,40.169,0,0,1,2.76,3.3c.82,1.1,1.466,2.369,2.355,3.4.188.219.611-.013.5-.292l-.01-.019c2.985-2.821,5.657-6.023,8.423-9.055q.537-.59,1.078-1.179c.846,1.19,1.715,2.364,2.555,3.55q1.818,2.565,3.675,5.1a2.766,2.766,0,0,0,.724,1.046c.027.024.058.036.085.058.114.152.222.307.336.458a.173.173,0,0,0,.315-.108,7.235,7.235,0,0,0,3.566-.228A31.388,31.388,0,0,0,1327.141,532,.439.439,0,0,0,1327.294,531.42Z" transform="translate(-1259.23 -438.441)" fill="#622439"/><path d="M1313.6,517.367l4.2,2.876,4.948,7.629.172,7.558a31.226,31.226,0,0,0,6.263-3.039.44.44,0,0,0,.152-.582c-1.98-4.574-3.846-9.2-5.778-13.8q-.653-1.553-1.3-3.109a8.991,8.991,0,0,0-1.143-2.41,2.361,2.361,0,0,0-.3-.268l-3.675,1.65-17.18-3.84-2.876,1.258a13.39,13.39,0,0,0-1.233,1.366l3.7,2.016,5.361,7.526s-8.884,9.5-10.479,11.107c.158.2.324.4.479.6.82,1.1,1.466,2.369,2.355,3.4.189.219.611-.014.5-.292l-.01-.019c2.985-2.821,5.657-6.023,8.423-9.055q.537-.59,1.078-1.179l1.982-7.865Z" transform="translate(-1261.274 -438.831)" fill="url(#ak)"/><path d="M1339.552,427.462c-.529-2.81-2.411-5.6-5.29-6.372a5.219,5.219,0,0,0-6.042,2.737.166.166,0,0,0-.177.123c-.865,2.957.377,5.987,1.679,8.6.892,1.792.772,3.626.69,5.576-.074,1.776-.194,3.551-.259,5.328a35.949,35.949,0,0,0,.808,9.946,30.644,30.644,0,0,0,3.669,8.68c.19.31.727.113.606-.256-2.607-7.917.761-15.781,2.956-23.35C1339.206,434.974,1340.241,431.122,1339.552,427.462Z" transform="translate(-1267.971 -420.919)" fill="#3b395a"/><path d="M1328.762,427.609a2.171,2.171,0,0,0-.807-1.542,1.346,1.346,0,0,0-1.459.05.3.3,0,0,0-.349.392,21.463,21.463,0,0,1,.974,4.442c.039.366.07.733.1,1.1a.81.81,0,0,0,.3.7.685.685,0,0,0,.616.021c.158-.059.37-.232.541-.165.208.081.385-.122.4-.305A15.333,15.333,0,0,0,1328.762,427.609Z" transform="translate(-1267.644 -421.916)" fill="url(#al)"/><path d="M1316.857,426.669a2.614,2.614,0,0,0-1.822-1.8,7.147,7.147,0,0,0-2.834.241,9.506,9.506,0,0,0-1.576.542,6.508,6.508,0,0,0-2.879,1.256,4.457,4.457,0,0,0-.736.791c-.065.074-.135.143-.195.221a4.3,4.3,0,0,0-.526,4.451.943.943,0,0,0,.188.231c.009.02.014.042.023.062a.183.183,0,0,0,.233.082,2.808,2.808,0,0,0,1.562-.284c.967-.3,1.94-.588,2.913-.869q2.971-.859,5.992-1.524a.405.405,0,0,0,.295-.387A7.631,7.631,0,0,0,1316.857,426.669Z" transform="translate(-1263.574 -421.701)" fill="#3b395a"/><path d="M1296.514,457.035c-.931-.775-2.065-.117-2.935.4-1.317.781-2.628,1.576-3.915,2.406a36.99,36.99,0,0,0-6.994,5.51.378.378,0,0,0-.026.041q-1.33,1-2.649,2.01a26.567,26.567,0,0,0-2.359,1.957c-.213-.26-.427-.505-.635-.728-1.993-2.131-4.537-3.658-6.738-5.554-2.12-1.827-4.077-3.84-6.28-5.572a15.717,15.717,0,0,0-2.5-1.832c0-.064,0-.129,0-.193a14.066,14.066,0,0,0-.114-1.651,7.7,7.7,0,0,0-.73-2.469c-.844-1.664-2.556-2.631-4.162-3.446a3.6,3.6,0,0,0-2.359-.654,1.717,1.717,0,0,0-1.17,1.595,7.7,7.7,0,0,0,.646,2.813,13.711,13.711,0,0,0,1.07,2.526,5.724,5.724,0,0,0,3.6,2.954.193.193,0,0,0,.03.069c1.715,2.44,3.743,4.7,5.6,7.032,1.761,2.212,3.473,4.478,5.394,6.555,2.384,2.579,6.992,6.853,10.758,5.02a3.857,3.857,0,0,0,.8-.207,9.991,9.991,0,0,0,1.568-.788.426.426,0,0,0,.276-.058c3.324-2.022,6.939-3.715,10.024-6.1a13.961,13.961,0,0,0,3.217-3.4,6.892,6.892,0,0,0,1.325-3.532,7.442,7.442,0,0,0,.181-1.922A3.841,3.841,0,0,0,1296.514,457.035Z" transform="translate(-1252.932 -426.203)" fill="#ffc19b"/><path d="M1297.023,463.778c-5.412,3.866-6.341,9.9-11.444,13.144-3.3,2.1-6.718.841-8.731-.312,2.393,1.988,5.393,3.632,7.992,2.367a3.863,3.863,0,0,0,.8-.207,10,10,0,0,0,1.568-.788.426.426,0,0,0,.276-.058c3.324-2.022,6.939-3.715,10.024-6.1a13.973,13.973,0,0,0,3.217-3.4c.123-.19.248-.4.371-.607C1301.356,464.337,1300.38,461.38,1297.023,463.778Z" transform="translate(-1257.739 -429.358)" fill="url(#am)"/><path d="M1321.551,494.668a91.957,91.957,0,0,1-1.666-11.676,70.028,70.028,0,0,1,.587-11.05,49.758,49.758,0,0,0,.452-10.042c-.01-.107-.024-.216-.035-.323-.021-.056-.039-.114-.062-.169-1.249-3.139-3.444-6.154-6.879-7.026a9.741,9.741,0,0,0-6.768.865,10.758,10.758,0,0,1-2.389,1.943c-.1.073-.194.141-.291.213q-2.094,2.453-4.181,4.912c-1.521,1.794-2.98,3.59-3.331,5.99-.543,3.706,1.7,7.232,4.5,9.592-.766,2.589-1.393,5.228-2.022,7.843q-1.322,5.5-2.376,11.055c-.169.893-.35,1.787-.488,2.686a1.627,1.627,0,0,0,.249,1.419,3.264,3.264,0,0,0,1.334.716q1.243.491,2.522.883a45.522,45.522,0,0,0,9.907,1.775,88.408,88.408,0,0,0,11.865,0,.379.379,0,0,0,.292-.153C1321.983,501.069,1322.117,497.749,1321.551,494.668Z" transform="translate(-1261.699 -427.592)" fill="#ffe052"/><path d="M1310.061,476.992a8.767,8.767,0,0,0-4.743-.515,13.591,13.591,0,0,1-6.5.412,8.9,8.9,0,0,1-1.219-.208,13.384,13.384,0,0,0,4.095,5.682,4.627,4.627,0,0,0,3.1-1.453,13.32,13.32,0,0,1,4.742-3.3C1312.432,476.477,1310.061,476.992,1310.061,476.992Z" transform="translate(-1261.911 -432.057)" fill="url(#an)"/><path d="M1325.845,501.432c-.164-1.793-.263-3.6-.581-5.332a91.958,91.958,0,0,1-1.666-11.676,70,70,0,0,1,.586-11.05c.2-1.922.427-3.853.52-5.785-1.257-1.672-5.687-7.21-8.535-6.224,0,0-2.189,2.188-.516,10.039.45,2.109,2.832,9.395,3.99,14.156s4.634,20.077,4.634,20.077Z" transform="translate(-1265.412 -429.025)" fill="url(#ao)"/><path d="M1326.155,510.483a11.038,11.038,0,0,1-.507-1.322,3.966,3.966,0,0,1-.122-.7c0-.026,0-.052,0-.078.171-.224.32-.471.476-.71a5.021,5.021,0,0,1,.335-1.228c2-5.168,4.191-10.264,6.442-15.324a12.489,12.489,0,0,0,1.255-7.156c-.17-.388-.346-.771-.516-1.163-.134-.312-.249-.632-.373-.948-.115-.293-.162-.6-.464-.738-.905-2.47-1.918-4.91-2.871-7.357-1.088-2.8-2.072-5.669-3.416-8.355-1.161-2.32-2.808-4.911-5.324-5.917a4.005,4.005,0,0,0-5.257,2.171,5.522,5.522,0,0,0-.345.988,11.185,11.185,0,0,0,1.479,5.229c.661,1.233,1.452,2.388,2.2,3.57.88,1.394,1.652,2.854,2.515,4.26a74.072,74.072,0,0,0,5.957,8.032c.361.441.506,1.624.615,1.723a11.945,11.945,0,0,0-.673,1.5c-.726,1.926-1.388,3.879-2.071,5.82-1.234,3.506-2.406,7.032-3.559,10.565a10.01,10.01,0,0,0-.643,1.962c-.078.243-.16.484-.238.728a.133.133,0,0,0,.078.17,15.3,15.3,0,0,0,.942,7.638c.182.45.59,1.688,1.2,1.933a.34.34,0,0,0,.306.1,5.768,5.768,0,0,0,1.334-.452,11.192,11.192,0,0,0,1.217-.585c.646-.361,1.439-.776,1.15-1.643C1326.976,512.272,1326.527,511.378,1326.155,510.483Z" transform="translate(-1265.502 -428.608)" fill="#ffc19b"/><path d="M1304.543,460.159a.025.025,0,0,0,0,.05A.025.025,0,0,0,1304.543,460.159Z" transform="translate(-1263.301 -428.806)" fill="#ffc19b"/><path d="M1304.539,460.14a.04.04,0,0,0,0,.08A.04.04,0,0,0,1304.539,460.14Z" transform="translate(-1263.297 -428.802)" fill="#ffc19b"/><path d="M1315.627,454.382a9.741,9.741,0,0,0-6.768.865,10.764,10.764,0,0,1-2.389,1.943c-.1.073-.194.141-.291.213l-1.134,1.332a2.93,2.93,0,0,0,.034,1.922,3.058,3.058,0,0,0,3.094,1.413,4.219,4.219,0,0,0,3.1-1.945c.453-.646.781-1.37,1.255-2a8,8,0,0,1,1.794-1.735,9.036,9.036,0,0,1,3.009-1.347A7.872,7.872,0,0,0,1315.627,454.382Z" transform="translate(-1263.377 -427.592)" fill="#ffc19b"/><path d="M1316.031,455.052a1.374,1.374,0,0,1,1.223-.822c.077,0,.155-.013.232-.021l.078-.012c.146-.026.293-.043.44-.062A24.58,24.58,0,0,0,1317,450.23a.3.3,0,0,0-.284-.217,31.043,31.043,0,0,0-5.315.744.245.245,0,0,0-.176.232,14.869,14.869,0,0,1-.318,2.264c-.1.247-.188.5-.276.75a2.435,2.435,0,0,0-.231,1.023c-.029.08-.05.161-.08.241-.057.153.111.23.228.173.377.505,1.262.328,1.811.267a29.732,29.732,0,0,0,3.672-.649Z" transform="translate(-1264.464 -426.767)" fill="#ffc19b"/><path d="M1317.306,450.751c-.056-.173-.1-.349-.157-.521a.3.3,0,0,0-.285-.217,31.041,31.041,0,0,0-5.315.744.245.245,0,0,0-.177.232,14.821,14.821,0,0,1-.312,2.239,5.956,5.956,0,0,0,1.766-.184A16.1,16.1,0,0,0,1317.306,450.751Z" transform="translate(-1264.615 -426.767)" fill="url(#ap)"/><path d="M1318.093,436.13c-.309-1.821-.659-3.944-1.846-5.431-1.285-1.608-3.447-1.725-5.348-1.476a5.449,5.449,0,0,0-3.912,2.519,10.69,10.69,0,0,0-1.439,4.833,7.585,7.585,0,0,1-.279,1.487,4.808,4.808,0,0,1-1.063,1.605c-.359.444-.6.978-.145,1.453.36.377.861.425,1.17.906a4.464,4.464,0,0,1,.483,1.456,6.569,6.569,0,0,0,.913,2.3,7.152,7.152,0,0,0,2.682,1.688,5.735,5.735,0,0,0,.9.232c.292.032.626.12.919.135a8.124,8.124,0,0,1,1.063.049c.054.008.378.016.428.033a6.443,6.443,0,0,0,2.108-.555c1.859-.873,2.609-2.713,3.044-4.6A16.444,16.444,0,0,0,1318.093,436.13Z" transform="translate(-1263.159 -422.568)" fill="#ffc19b"/><path d="M1305.109,444.1a3.452,3.452,0,0,1-1.109-.117.976.976,0,0,0,.1.128c.33.345.769.429,1.08.806a2.3,2.3,0,0,0,1.065-.507C1306.553,444.045,1305.727,444.045,1305.109,444.1Z" transform="translate(-1263.196 -425.554)" fill="url(#aq)"/><path d="M1315.254,447.635c.166-.059.329-.125.488-.2,1.859-.873,2.609-2.713,3.044-4.6a18.047,18.047,0,0,0-.8-10.88,8.241,8.241,0,0,0-1.846-1.075,18.942,18.942,0,0,0-5.09-1.385,5.294,5.294,0,0,0-2.179,1.281,5.071,5.071,0,0,0,2.32,2.526,5.9,5.9,0,0,1,3.608,4.639,35.459,35.459,0,0,1,.464,9.434A1.794,1.794,0,0,0,1315.254,447.635Z" transform="translate(-1264.176 -422.642)" fill="url(#ar)"/><path d="M1324.549,430.286a7.219,7.219,0,0,0-.463-2.09,4.5,4.5,0,0,0-.893-2.6,6.557,6.557,0,0,0-3.522-2.111,10.231,10.231,0,0,0-8.306,1.293.275.275,0,0,0,.277.475,10.534,10.534,0,0,1,1.211-.55.606.606,0,0,0,.327.694,10.224,10.224,0,0,0-4.145,3.548c-.175.26.114.5.36.469a6.99,6.99,0,0,1,7.5,4.427c.509,1.353.246,2.769.644,4.12.018.061.045.117.068.176-.337.24-.189.905-.182,1.25.012.579.027,1.159.018,1.739a8.807,8.807,0,0,1-.783,3.9.182.182,0,0,0,.193.265.282.282,0,0,0,.432.136,13.214,13.214,0,0,0,3.562-3.349,11.68,11.68,0,0,0,1.074-1.821,16.066,16.066,0,0,0,1.379-2.62A15.851,15.851,0,0,0,1324.549,430.286Z" transform="translate(-1264.198 -421.362)" fill="#3b395a"/><path d="M1322.108,438.111a1.437,1.437,0,0,0-1.58-1.131,3.567,3.567,0,0,0-1.3.446,1.212,1.212,0,0,0-.727.9.168.168,0,0,0,.043.127.228.228,0,0,0-.006.026q-.01.73-.018,1.46a2.348,2.348,0,0,0,.015.628.488.488,0,0,0,.515.332,3.621,3.621,0,0,0,2.334-.849A2,2,0,0,0,1322.108,438.111Z" transform="translate(-1266.111 -424.145)" fill="#ffc19b"/><path d="M1316.754,433.437c-.009-.058-.028-.113-.039-.171a.2.2,0,0,0,.058-.245,15.89,15.89,0,0,1-.571-2.194,7.2,7.2,0,0,0-.714-1.78,5.73,5.73,0,0,0-1.109-1.437c-.118-.109-.251-.2-.377-.3.062-.03.12-.065.182-.094a.4.4,0,0,0,.079-.612c-1.548-1.943-4.545-1.787-6.4-.411a5.747,5.747,0,0,0-2,2.675,3.75,3.75,0,0,0,.263,3.432.418.418,0,0,0,.137.111,3.636,3.636,0,0,1,.421-1.985,3.8,3.8,0,0,1,1.11-1.24,4.964,4.964,0,0,0,2.912,2.311c.867.321,1.771.534,2.635.861a4.8,4.8,0,0,1,1.605.889c-.007.617.022,1.241.064,1.853.027.383.037.8.085,1.209,0,.285,0,.57,0,.856,0,1.005-.007,2.01,0,3.015,0,.218.336.34.438.118a13.369,13.369,0,0,0,1.1-3.7,11.325,11.325,0,0,0,.145-2.014l0,0A3.21,3.21,0,0,0,1316.754,433.437Z" transform="translate(-1263.513 -421.77)" fill="#3b395a"/><path d="M1277.324,539.016a.08.08,0,0,0-.057-.024.082.082,0,0,0-.057.024l-.146.163a.076.076,0,0,0-.02.049.074.074,0,0,0,.02.049.071.071,0,0,0,.049.02.074.074,0,0,0,.049-.02l.163-.146a.08.08,0,0,0,.024-.057A.082.082,0,0,0,1277.324,539.016Z" transform="translate(-1257.778 -444.65)" fill="#ffc19b"/><path d="M1295.219,602.713c-.139-1.4-.55-3.027-1.971-3.64a5.208,5.208,0,0,0-3-.022,22.725,22.725,0,0,0-2.527.644,1.509,1.509,0,0,1-.85.321l-.249.05c-.02.008-.039.019-.059.026a1.248,1.248,0,0,1-.237.054,5.2,5.2,0,0,1-2.185.814,22.56,22.56,0,0,1-3.571.371,55.649,55.649,0,0,0-6.531.348,1.726,1.726,0,0,0-1.462.825,5.258,5.258,0,0,0-.266,2.8,3.014,3.014,0,0,0,.611,1.811c.591.536,1.747.339,2.464.359,4.765.136,9.539.371,14.306.388,1.473,0,3.759.171,4.849-1.054C1295.479,605.755,1295.349,604.012,1295.219,602.713Z" transform="translate(-1256.813 -456.678)" fill="#3b395a"/><path d="M1387.026,550c-.936-1.59-1.978-3.117-3.045-4.622a46.26,46.26,0,0,0-2.98-4.012,4.979,4.979,0,0,0-3.776-1.982,3.8,3.8,0,0,0-.508.062c-.082.033-.165.064-.252.094s-.177.068-.266.1a12.494,12.494,0,0,0-1.322.7c-.281.185-.562.368-.835.558q-.557.388-1.127.757a1.885,1.885,0,0,0-.088.929,4.006,4.006,0,0,0,.906,1.746c.507.652,1.025,1.3,1.537,1.945a4.266,4.266,0,0,0,1.478,1.4,2.638,2.638,0,0,0,.285.1,3.739,3.739,0,0,0,.352.359,10.444,10.444,0,0,0,1.293.89,41.067,41.067,0,0,0,4.954,4.169c.966.7,2.474,1.577,3.557.57C1388.327,552.718,1387.681,551.118,1387.026,550Z" transform="translate(-1277.025 -444.729)" fill="#3b395a"/><path d="M1327.712,506.512c2-5.168,4.191-10.264,6.442-15.325a12.484,12.484,0,0,0,1.255-7.155c-.169-.388-.346-.771-.515-1.163-.134-.312-.249-.632-.373-.948-.115-.293-.162-.6-.464-.737-.905-2.47-1.918-4.911-2.871-7.357-1.088-2.8-2.072-5.669-3.416-8.355-1.161-2.32-2.808-4.911-5.324-5.917-.047-.018-.094-.024-.141-.042,3.21,3.508,7.493,15.938,8.907,19.048,1.546,3.4,3.556,7.268,1.392,12.372s-5.7,17.517-5.7,17.517c.171-.224.32-.471.476-.71A5.022,5.022,0,0,1,1327.712,506.512Z" transform="translate(-1266.876 -428.676)" fill="url(#as)"/></g></g></g></svg>